<?xml version="1.0" standalone="no"?>
<!DOCTYPE svg PUBLIC "-//W3C//DTD SVG 1.1//EN" "http://www.w3.org/Graphics/SVG/1.1/DTD/svg11.dtd">
<svg xmlns="http://www.w3.org/2000/svg">
<defs >
<font id="Merriweather" horiz-adv-x="1170" ><font-face
    font-family="Merriweather"
    units-per-em="2048"
    panose-1="2 0 8 3 6 0 0 9 0 4"
    ascent="2014"
    descent="-560"
    alphabetic="0" />
<glyph unicode=" " glyph-name="space" horiz-adv-x="485" />
<glyph unicode="!" glyph-name="exclam" horiz-adv-x="686" d="M417 1778H612L381 488H270L417 1778ZM192 -4T179 9T161 39T156 82T172 134T208 176Q250 210 302 210T374 184T393 136T391 96T375 53T341 14Q299 -18 265 -18T211 -11Z" />
<glyph unicode="&quot;" glyph-name="quotedbl" horiz-adv-x="1003" d="M352 1687H534L379 966H266L352 1687ZM831 1687H1013L858 966H745L831 1687Z" />
<glyph unicode="#" glyph-name="numbersign" horiz-adv-x="1405" d="M325 365H111L117 468H341L413 922H191L197 1025H429L482 1357H614L563 1025H940L996 1357H1128L1074 1025H1306L1300 922H1058L985 468H1214L1208 365H969L912 0H784L836 365H458L396 0H266L325
365ZM852 468L923 922H547L474 468H852Z" />
<glyph unicode="$" glyph-name="dollar" horiz-adv-x="1205" d="M827 1546Q1010 1530 1107 1465L1065 1220H971L948 1401Q860 1463 703 1463Q596 1463 510 1402Q395 1320 395 1164Q395 1014 589 897L819 760Q1039 623 1039 429Q1039 236 903 113Q774 -3 573 -20L539
-230H395L429 -20Q269 -9 153 40Q122 53 107 65L150 343H251L263 139Q332 84 466 67Q504 62 552 62T661 80T772 136Q890 226 890 376Q890 524 714 636L486 774Q250 919 250 1121Q250 1301 377 1419Q498 1531 684 1548L712 1729H857L827 1546Z" />
<glyph unicode="%" glyph-name="percent" horiz-adv-x="1911" d="M1357 1530H1486L539 0H410L1357 1530ZM725 821T649 783T491 745T357 768T270 834Q200 918 200 1055Q200 1219 317 1347Q439 1480 613 1480Q890 1480 890 1185Q890 1012 778 883Q725 821 649 783ZM747
1179Q747 1398 591 1398Q474 1398 400 1281Q336 1179 336 1057Q336 895 428 845Q459 828 511 828T610 863T688 950Q747 1053 747 1179ZM1036 380Q1036 453 1067 529T1153 666Q1275 799 1449 799Q1726 799 1726 504Q1726 331 1614 202Q1495 64 1314 64Q1180 64 1106
153Q1036 237 1036 380ZM1583 498Q1583 717 1427 717Q1310 717 1236 600Q1172 498 1172 376Q1172 214 1264 164Q1295 147 1347 147T1446 182T1524 270Q1583 372 1583 498Z" />
<glyph unicode="&amp;" glyph-name="ampersand" horiz-adv-x="1549" d="M947 71Q785 -17 563 -17Q351 -17 216 72Q59 176 59 366Q59 560 279 698Q343 738 413 775Q351 913 328 1062Q320 1111 320 1177T354 1316T448 1442Q572 1549 762 1549Q929 1549 1011 1460Q1080
1385 1080 1269Q1080 1105 917 979Q830 911 733 860L577 775Q777 422 1009 214Q1105 326 1105 551Q1105 624 1082 690Q1049 693 994 693T876 660V768Q888 780 923 795T1003 810T1080 806T1145 797Q1231 784 1279 784T1359 793T1414 822Q1457 862 1471 955H1534Q1528
736 1417 682Q1376 662 1336 662Q1287 662 1242 667Q1250 632 1250 586Q1250 325 1074 160Q1195 69 1350 69Q1359 69 1368 69L1359 -1Q1279 -20 1193 -20Q1049 -20 947 71ZM543 841Q727 936 793 996T892 1116T924 1233T916 1327T888 1396Q841 1466 742 1466Q616
1466 539 1383Q464 1302 464 1173Q464 1017 543 841ZM452 700Q222 550 222 369Q222 226 321 148Q416 72 578 72Q769 72 887 125Q684 316 538 554L452 700Z" />
<glyph unicode="&apos;" glyph-name="quotesingle" horiz-adv-x="524" d="M342 1687H524L369 966H256L342 1687Z" />
<glyph unicode="(" glyph-name="parenleft" horiz-adv-x="854" d="M223 270Q203 377 203 492T220 738T283 996T388 1232T515 1429T643 1582Q759 1706 827 1741L897 1693Q791 1629 642 1408Q446 1115 388 763Q369 613 369 506T383 302T421 124T475 -22T536 -136Q592
-227 643 -268L557 -319H543Q440 -244 345 -80Q261 65 223 270Z" />
<glyph unicode=")" glyph-name="parenright" horiz-adv-x="854" d="M652 1158Q672 1051 672 936T655 690T592 432T487 196T360 -1T232 -154Q116 -278 48 -313L-22 -265Q84 -201 233 20Q429 313 487 665Q506 815 506 922T492 1126T454 1304T400 1450T339 1564Q283
1655 232 1696L318 1747H332Q435 1672 530 1508Q614 1363 652 1158Z" />
<glyph unicode="*" glyph-name="asterisk" horiz-adv-x="1366" d="M284 963L603 1099L727 1147L614 1197L322 1340L413 1473L665 1272L757 1192L749 1319L746 1653L899 1652L836 1319L808 1192L917 1272L1210 1469L1272 1335L952 1196L829 1146L939 1098L1226
956L1134 824L888 1023L798 1104L805 981L808 647L654 648L718 981L747 1104L639 1024L347 829L284 963Z" />
<glyph unicode="+" glyph-name="plus" horiz-adv-x="1366" d="M609 536L636 715L479 709H254L268 836H494L649 827L665 1005L692 1235H835L809 1005L779 827L911 836H1166L1151 709H896L767 715Q767 699 765 675L757 576Q755 552 754 536L724 295H580L609 536Z" />
<glyph unicode="," glyph-name="comma" horiz-adv-x="563" d="M96 159L186 265Q336 228 369 76Q378 34 378 -27T350 -164T272 -305Q170 -438 5 -501L-29 -446L-27 -428Q68 -386 140 -288Q216 -182 216 -69Q216 4 188 45Q141 114 91 116L96 159Z" />
<glyph unicode="-" glyph-name="hyphen" horiz-adv-x="1270" d="M252 836H1086L1071 709H238L252 836Z" />
<glyph unicode="." glyph-name="period" horiz-adv-x="526" d="M248 -18T202 -18T134 6T111 68T125 133T157 176Q193 210 245 210T316 184T335 136Q335 55 292 19Z" />
<glyph unicode="/" glyph-name="slash" horiz-adv-x="854" d="M-117 -362L745 1597H884L21 -362H-117Z" />
<glyph unicode="0" glyph-name="zero" horiz-adv-x="1270" d="M176 186T153 270T129 478T176 731T306 957T500 1107T733 1162T933 1124T1060 1021Q1151 902 1151 697Q1151 406 983 200Q903 101 792 43T557 -16T356 21T227 122ZM985 682Q985 1074 719 1074Q577
1074 474 974Q341 848 304 600Q294 528 294 456T308 314T355 190Q425 73 562 73Q764 73 880 269Q985 446 985 682Z" />
<glyph unicode="1" glyph-name="one" horiz-adv-x="954" d="M138 70L356 91L482 966Q482 966 357 924Q269 895 206 882L194 960Q338 993 512 1104L600 1162L670 1143L518 92L751 70L743 0H130L138 70Z" />
<glyph unicode="2" glyph-name="two" horiz-adv-x="1273" d="M632 1052Q447 1052 260 892L217 964Q336 1090 532 1143Q603 1162 691 1162T850 1135T966 1062Q1055 974 1055 835Q1055 583 658 308Q509 204 307 101L945 131L1038 305L1119 276L1040 0H107L93 67Q712
373 852 674Q883 742 883 809Q883 926 819 989T632 1052Z" />
<glyph unicode="3" glyph-name="three" horiz-adv-x="1128" d="M67 -223Q151 -234 232 -234T412 -208T588 -132Q757 -23 757 155Q757 415 461 419Q452 415 427 408Q352 387 325 381T289 371L301 466Q625 544 736 714Q776 776 776 839T760 940T715 1002Q658 1051
557 1051Q391 1051 207 917L173 998Q280 1100 476 1146Q547 1162 619 1162T750 1146T854 1095Q954 1021 954 881Q954 753 840 638Q737 536 586 482Q763 482 857 390Q940 309 940 176Q940 29 832 -91Q680 -259 398 -311Q310 -327 248 -327Q152 -327 56 -315L67 -223Z"
/>
<glyph unicode="4" glyph-name="four" horiz-adv-x="1288" d="M45 76Q45 76 214 345L382 628L556 930L740 1256H841L905 1184L305 246L202 97L745 119L817 602L972 649L895 128L1144 139L1127 0H877L822 -375H670L727 0H74L45 76Z" />
<glyph unicode="5" glyph-name="five" horiz-adv-x="1140" d="M69 -255Q114 -264 174 -264T311 -252T457 -215T587 -153T692 -67Q786 38 786 180Q786 405 616 466Q562 486 491 486T348 464T214 417L173 449L336 1146H909L929 1162H1063L1015 1011H443L324 531Q450
580 556 580T736 558T862 488Q969 391 969 204Q969 44 846 -88Q734 -207 550 -278Q371 -346 188 -346Q109 -346 58 -329L69 -255Z" />
<glyph unicode="6" glyph-name="six" horiz-adv-x="1292" d="M385 843Q542 975 761 975Q944 975 1042 860Q1127 759 1127 601Q1127 368 974 181Q871 55 726 6Q651 -20 558 -20T388 18T260 122Q156 255 156 469Q156 834 399 1150Q555 1352 777 1476Q888 1537 1011
1571L1035 1502Q804 1418 629 1238Q460 1065 385 843ZM351 696Q322 574 322 471T339 297T390 175Q463 68 603 68Q773 68 874 238Q960 381 960 563Q960 787 820 855Q776 876 711 876T584 856T476 806Q408 763 351 696Z" />
<glyph unicode="7" glyph-name="seven" horiz-adv-x="1120" d="M904 1034L300 1024L210 813L107 817L177 1146H1039L1067 1109L425 -315L259 -262L904 1034Z" />
<glyph unicode="8" glyph-name="eight" horiz-adv-x="1289" d="M1158 1225Q1158 989 785 795L893 713Q1086 559 1086 398Q1086 209 925 91Q774 -20 569 -20Q392 -20 274 64Q139 160 139 333Q139 600 536 798Q436 878 397 931Q321 1034 321 1137T355 1315T450 1443Q575
1550 778 1550Q948 1550 1052 1463Q1158 1374 1158 1225ZM710 848Q901 934 974 1092Q1001 1148 1001 1213T983 1327T932 1408Q868 1470 761 1470Q636 1470 557 1388Q477 1304 477 1171Q477 1035 620 917Q663 882 710 848ZM337 488Q310 428 310 362T327 241T382
148Q458 66 597 66Q731 66 822 144Q918 228 918 369Q918 514 727 660Q670 703 606 747Q414 656 337 488Z" />
<glyph unicode="9" glyph-name="nine" horiz-adv-x="1271" d="M229 -363Q580 -234 780 88Q842 189 880 297Q782 211 628 178Q570 165 487 165T334 197T220 283Q136 384 136 546Q136 770 290 958Q455 1160 697 1160Q894 1160 1004 1020Q1107 890 1107 682Q1107
306 864 -12Q708 -215 486 -337Q375 -398 253 -432L229 -363ZM551 263Q615 263 676 283T784 333Q853 377 912 445Q942 556 942 666T925 846T874 966Q800 1073 660 1073Q489 1073 390 906Q304 761 304 589Q304 436 370 349Q434 263 551 263Z" />
<glyph unicode=":" glyph-name="colon" horiz-adv-x="526" d="M321 791T275 791T207 815T184 877T198 942T230 985Q266 1019 318 1019T389 993T408 945Q408 864 365 828ZM485 -18T439 -18T371 6T348 68T362 133T394 176Q430 210 482 210T553 184T572 136Q572 55 529 19Z" />
<glyph unicode=";" glyph-name="semicolon" horiz-adv-x="526" d="M96 159L186 265Q336 228 369 76Q378 34 378 -27T350 -164T272 -305Q170 -438 5 -501L-29 -446L-27 -428Q68 -386 140 -288Q216 -182 216 -69Q216 4 188 45Q141 114 91 116L96 159ZM323 791T277
791T209 815T186 877T200 942T232 985Q268 1019 320 1019T391 993T410 945Q410 864 367 828Z" />
<glyph unicode="&lt;" glyph-name="less" horiz-adv-x="1368" d="M210 802L1220 1324L1201 1168L361 751L1103 333L1085 176L197 699L210 802Z" />
<glyph unicode="=" glyph-name="equal" horiz-adv-x="1063" d="M166 990H981L967 865H152L166 990ZM96 480H911L897 355H82L96 480Z" />
<glyph unicode="&gt;" glyph-name="greater" horiz-adv-x="1368" d="M1232 701L222 179L241 335L1081 752L339 1170L357 1327L1245 804L1232 701Z" />
<glyph unicode="?" glyph-name="question" horiz-adv-x="1020" d="M386 464Q332 518 312 646Q306 684 306 727T329 811T392 886T487 954L684 1066Q824 1146 855 1217Q867 1256 867 1326T839 1468T762 1587Q665 1684 514 1684Q403 1684 331 1646L353 1760Q388 1795
495 1809Q526 1813 556 1813Q799 1813 913 1672Q1005 1558 1005 1373Q1005 1157 830 1032Q781 996 729 966L628 910Q519 852 476 784Q453 747 453 708T458 642T471 590T488 542L503 503L401 463L386 464ZM469 210Q562 210 562 130Q562 64 512 20Q467 -18 421 -18T350
5T324 65T338 127T374 170Q419 210 469 210Z" />
<glyph unicode="@" glyph-name="at" horiz-adv-x="1969" d="M1291 -312Q1135 -428 875 -428Q536 -428 336 -240Q120 -38 120 334Q120 686 268 970Q410 1240 657 1392Q905 1545 1199 1545Q1505 1545 1685 1377Q1868 1206 1868 909Q1868 513 1668 256Q1549 104 1405
48Q1335 21 1285 21T1215 37T1186 80Q1172 120 1172 179T1174 266T1182 328Q1194 410 1210 480Q1009 7 821 7Q707 7 629 109Q543 221 543 417Q543 672 676 872Q768 1008 914 1064Q990 1092 1047 1092T1134 1089T1196 1080Q1272 1064 1310 1038L1444 1063Q1370 777
1330 439Q1318 345 1318 278V195Q1318 138 1353 138Q1443 138 1534 240Q1677 400 1728 670Q1744 759 1744 886T1694 1125T1560 1307Q1399 1440 1131 1440Q864 1440 656 1290Q460 1149 350 906Q243 668 243 392Q243 30 436 -153Q608 -317 902 -317Q1102 -317 1265
-242L1291 -312ZM686 298T729 218T849 138Q914 138 1001 260Q1126 437 1220 732Q1249 823 1269 910Q1229 967 1120 986Q1092 991 1045 991T941 968T841 904T769 809T720 694Q686 582 686 440Z" />
<glyph unicode="A" glyph-name="A" horiz-adv-x="1264" d="M726 1530H893L1128 96L1295 69L1289 0H801L806 69L971 93L919 449H319L148 94L321 69L316 0H-148L-140 69L4 93L726 1530ZM905 547L781 1403L367 547H905Z" />
<glyph unicode="B" glyph-name="B" horiz-adv-x="1293" d="M523 -14L259 0H40L47 69L193 94L374 1430L242 1449L252 1530H489Q558 1532 627 1538T792 1545T969 1518T1101 1444Q1200 1356 1200 1211Q1200 904 887 814Q1013 798 1100 708Q1192 614 1192 482T1142
256T1001 102Q827 -14 523 -14ZM526 847L674 848Q934 848 1014 1041Q1041 1105 1041 1192Q1041 1324 974 1385Q900 1451 735 1451Q616 1451 534 1438L455 848Q489 847 526 847ZM559 84Q1022 84 1022 466Q1022 604 939 675T704 746Q536 746 441 741L355 103Q412
84 559 84Z" />
<glyph unicode="C" glyph-name="C" horiz-adv-x="1251" d="M588 -16Q504 -16 433 11T307 84T212 193T146 327Q93 472 93 622T118 890T194 1109T313 1292T466 1430Q639 1546 839 1546Q1005 1546 1135 1512L1238 1485L1170 1122H1076L1072 1397Q1003 1435 939 1442T799
1450T644 1415T501 1318T392 1177Q260 947 260 665Q260 264 462 126Q531 79 631 79Q770 79 868 135Q902 154 922 179Q923 184 932 216L972 358Q982 392 984 402L1082 401L1042 70L968 46Q777 -16 588 -16Z" />
<glyph unicode="D" glyph-name="D" horiz-adv-x="1426" d="M484 1530L805 1546Q1093 1546 1236 1374Q1371 1211 1371 904Q1371 515 1158 251Q1015 75 808 12Q712 -16 606 -16Q579 -16 562 -15L500 -11Q485 -10 471 -9T430 -6T374 -3L316 -1Q287 0 266 0H39L46
69L193 94L374 1430L242 1449L252 1530H484ZM355 106Q486 79 631 79Q820 89 958 214Q1082 326 1150 520Q1209 692 1209 898Q1209 1325 956 1420Q872 1452 760 1452Q673 1452 534 1433L354 105L355 106Z" />
<glyph unicode="E" glyph-name="E" horiz-adv-x="1210" d="M46 69L193 93L373 1430L241 1449L251 1530H1162L1155 1220H1069L1033 1427L536 1443L456 840L922 846L912 721L441 734L353 94L961 113L1074 341L1158 316L1069 0H38L46 69Z" />
<glyph unicode="F" glyph-name="F" horiz-adv-x="1121" d="M46 70L193 94L374 1430L242 1449L252 1530H1182L1162 1220H1065L1043 1427L537 1442L455 838L938 846L928 718L441 731L354 96L597 70L591 0H39L46 70Z" />
<glyph unicode="G" glyph-name="G" horiz-adv-x="1361" d="M602 -17Q527 -17 455 8T325 79T227 185T158 318Q101 465 101 653T153 1006T304 1292T542 1479T847 1546Q1059 1546 1248 1490L1286 1479L1229 1183H1127L1120 1385Q1024 1451 829 1451Q639 1451 505
1322Q328 1153 284 830Q272 741 272 696T272 596T294 440T362 258Q463 77 653 77Q801 77 921 134Q961 153 989 178L1056 616L786 630L797 723H1232L1139 94Q1110 91 1082 82L930 36Q754 -17 602 -17Z" />
<glyph unicode="H" glyph-name="H" horiz-adv-x="1534" d="M48 69L197 94L377 1430L242 1449L252 1530H697L689 1449L538 1430L457 830H1155L1236 1430L1088 1449L1095 1530H1545L1536 1449L1396 1430L1217 95L1371 69L1363 0H890L897 70L1057 95L1141 726H443L358
94L514 70L507 0H41L48 69Z" />
<glyph unicode="I" glyph-name="I" horiz-adv-x="717" d="M61 69L210 94L390 1430L255 1449L265 1530H710L702 1449L551 1430L371 94L527 70L520 0H54L61 69Z" />
<glyph unicode="J" glyph-name="J" horiz-adv-x="694" d="M196 82Q243 321 283 618Q283 618 345 1092Q367 1268 390 1431L227 1449L238 1530H725L716 1449L546 1431Q413 376 388 238T354 75Q296 -114 150 -224Q29 -315 -142 -345L-170 -275Q-27 -237 78 -126Q175
-25 196 82Z" />
<glyph unicode="K" glyph-name="K" horiz-adv-x="1352" d="M44 69L193 94L374 1430L239 1449L249 1530H694L686 1449L535 1430L431 663L1125 1430L989 1449L998 1530H1415L1406 1449L1283 1431L712 827Q1064 241 1088 203Q1135 131 1165 114L1310 75L1299 0H1050Q1019
3 966 104L835 357Q657 674 622 732L410 508L354 94L510 70L503 0H37L44 69Z" />
<glyph unicode="L" glyph-name="L" horiz-adv-x="1173" d="M45 70L194 94L374 1430L239 1449L249 1530H722L713 1449L535 1430L354 94L892 103L1022 449L1116 431L1020 0H38L45 70Z" />
<glyph unicode="M" glyph-name="M" horiz-adv-x="1847" d="M-53 70L103 94L468 1430L280 1449L290 1530H704L843 463L864 204L963 459L1465 1530H1846L1837 1449L1658 1430L1597 95L1759 70L1752 0H1242L1250 70L1430 93L1533 1427L1381 1074L869 -4L769 -18L620
1050L578 1427L490 1042L249 94L433 70L426 0H-61L-53 70Z" />
<glyph unicode="N" glyph-name="N" horiz-adv-x="1521" d="M31 69L171 92L361 1430L216 1449L230 1530H531L1046 368L1112 172L1278 1431L1127 1449L1137 1530H1572L1564 1449L1412 1430L1198 0H1046L535 1136L471 1336L310 94L474 70L468 0H24L31 69Z" />
<glyph unicode="O" glyph-name="O" horiz-adv-x="1352" d="M598 -20Q492 -20 401 27T244 160Q106 345 106 661Q106 1034 306 1288Q438 1456 618 1518Q709 1550 820 1550T1023 1498T1178 1356Q1305 1169 1305 869Q1305 498 1108 243Q904 -20 598 -20ZM273 704Q273
80 628 76Q736 76 831 134Q1025 251 1104 539Q1139 671 1139 824Q1139 1275 950 1408Q883 1454 797 1454T644 1427T520 1349T416 1228Q273 1009 273 704Z" />
<glyph unicode="P" glyph-name="P" horiz-adv-x="1216" d="M775 1547Q1227 1547 1227 1140Q1227 869 1046 703Q873 544 609 544Q541 544 491 548L414 553L354 94L550 70L544 0H37L44 69L193 94L374 1430L239 1449L249 1530H482L775 1547ZM426 657Q524 640 617
640Q1064 644 1064 1152Q1064 1301 996 1372Q920 1451 750 1451Q648 1451 536 1430L426 657Z" />
<glyph unicode="Q" glyph-name="Q" horiz-adv-x="1353" d="M688 -13Q694 -217 992 -217Q1100 -217 1202 -166L1204 -277Q1142 -329 1010 -351Q969 -358 914 -358T794 -338Q654 -294 601 -169Q581 -122 581 -82T584 -18Q368 -10 240 170Q107 356 107 670Q107 903
197 1106T450 1430Q613 1551 808 1551Q1046 1551 1178 1357Q1306 1170 1306 869Q1306 526 1134 278Q956 23 688 -13ZM274 705Q274 81 629 77Q737 77 832 134Q1026 252 1104 540Q1140 672 1140 825Q1140 1276 950 1408Q884 1455 798 1455T645 1428T521 1350T417
1230Q274 1010 274 705Z" />
<glyph unicode="R" glyph-name="R" horiz-adv-x="1324" d="M459 1530L728 1546Q1094 1546 1181 1347Q1212 1276 1212 1185T1187 1016T1110 872Q1007 738 825 690Q924 614 1022 373Q1094 189 1132 146T1202 91T1259 79T1290 79L1286 -1L1062 1Q1031 1 1006 43Q966
110 921 224L847 411Q782 578 721 640Q690 672 656 672Q651 672 646 672T613 671Q518 671 424 671L348 94L536 70L530 0H52L59 69L193 94L374 1430L239 1449L249 1530H459ZM436 766Q507 762 561 762Q653 762 711 766T839 802Q981 865 1030 1018Q1053 1088 1053
1134T1053 1216T1034 1302T974 1385Q890 1451 700 1451Q619 1451 529 1436L436 766Z" />
<glyph unicode="S" glyph-name="S" horiz-adv-x="1094" d="M91 343L185 347L198 137Q263 94 388 78Q425 74 470 74T575 89T684 137Q796 212 796 354Q796 522 652 638Q609 672 556 705T442 781T334 875Q221 996 221 1148Q221 1328 353 1440Q482 1550 680 1550Q926
1550 1053 1465L1007 1203H921L907 1400Q826 1455 677 1455Q483 1455 408 1328Q378 1278 378 1205T401 1080T462 984Q521 918 651 840Q790 753 844 690Q954 562 954 414Q954 216 811 94Q672 -23 455 -23Q257 -23 108 36Q68 51 50 65L91 343Z" />
<glyph unicode="T" glyph-name="T" horiz-adv-x="1235" d="M228 75L469 94L659 1443L292 1422L198 1064H107L188 1530H1318L1243 1065L1155 1064L1185 1423L820 1443L630 94L879 75L873 0H221L228 75Z" />
<glyph unicode="U" glyph-name="U" horiz-adv-x="1396" d="M438 11Q178 108 178 452Q178 518 186 593L311 1431L172 1450L182 1530H637L628 1450L474 1429L351 607Q341 513 341 472T341 384T362 273T420 162Q500 69 651 69Q839 69 946 206T1088 627L1207 1429L1072
1449L1081 1530H1485L1476 1449L1347 1431L1227 627Q1161 118 858 14Q757 -20 639 -20T438 11Z" />
<glyph unicode="V" glyph-name="V" horiz-adv-x="1212" d="M218 1430L88 1449L96 1530H577L568 1449L385 1430L517 449L549 133L666 449L1118 1430L958 1450L966 1530H1376L1368 1450L1256 1431L583 -11L443 -21L218 1430Z" />
<glyph unicode="W" glyph-name="W" horiz-adv-x="1794" d="M180 1429L33 1449L43 1530H526L517 1449L333 1433L496 136L570 374L934 1286L919 1432L774 1449L783 1530H1265L1248 1449L1071 1432L1170 435L1192 136L1283 398L1723 1429L1566 1449L1575 1530H2003L1989
1449L1856 1429L1232 -10H1071L968 1067L539 -10H381L180 1429Z" />
<glyph unicode="X" glyph-name="X" horiz-adv-x="1287" d="M-56 70L78 93L593 773L296 1427L147 1449L155 1530H658L649 1449L480 1431L700 877L1085 1430L923 1449L932 1530H1392L1384 1449L1240 1431L752 779L1071 94L1234 70L1227 0H703L709 70L885 93L643
673L235 94L403 69L396 0H-65L-56 70Z" />
<glyph unicode="Y" glyph-name="Y" horiz-adv-x="1167" d="M245 70L458 94L525 586L186 1430L70 1449L78 1530H546L536 1449L361 1430L581 822L623 685L701 822L1076 1430L929 1449L938 1530H1350L1338 1449L1225 1431L678 586L611 94L834 70L827 0H239L245 70Z" />
<glyph unicode="Z" glyph-name="Z" horiz-adv-x="1203" d="M3 73L911 1293L1036 1438L410 1432L320 1167L212 1186L268 1530H1196L1217 1461L291 207L187 86L877 106L998 378L1109 353L1016 0H25L3 73Z" />
<glyph unicode="[" glyph-name="bracketleft" horiz-adv-x="854" d="M345 -66L492 -67Q534 -67 573 -67T638 -68L630 -137Q482 -174 338 -174Q264 -174 233 -150T202 -74T205 30T216 159T237 330Q273 600 291 727Q394 1431 403 1500T424 1608T457 1670Q495 1713
590 1713Q668 1713 763 1695T866 1676L855 1606H567L345 -66Z" />
<glyph unicode="\" glyph-name="backslash" horiz-adv-x="854" d="M133 1597H271L848 -362H709L133 1597Z" />
<glyph unicode="]" glyph-name="bracketright" horiz-adv-x="854" d="M560 1622L413 1623Q371 1623 332 1623T267 1624L275 1693Q423 1730 567 1730Q641 1730 672 1706T703 1630T700 1526T689 1397T668 1226Q632 956 614 829Q511 125 502 56T481 -52T448 -114Q410
-157 315 -157Q237 -157 142 -139T39 -120L50 -50H338L560 1622Z" />
<glyph unicode="^" glyph-name="asciicircum" horiz-adv-x="1364" d="M708 1531H867L1137 510H1004L768 1350L316 510H182L708 1531Z" />
<glyph unicode="_" glyph-name="underscore" horiz-adv-x="1335" d="M1283 -218L1267 -338H-111L-95 -218H1283Z" />
<glyph unicode="`" glyph-name="grave" horiz-adv-x="541" d="M378 1294Q112 1501 58 1596L179 1729L479 1304L435 1255Q411 1270 378 1294Z" />
<glyph unicode="a" glyph-name="a" horiz-adv-x="1138" d="M824 -20Q707 -20 707 98Q707 107 708 117L718 190Q622 50 482 -2Q431 -20 363 -20T237 10T141 96Q66 205 66 399Q66 562 142 734Q273 1029 518 1128Q605 1163 698 1163T899 1127L900 1128L1018 1162L868
173Q857 105 890 89Q899 85 912 85Q930 85 996 144L1023 100Q1010 72 971 41Q892 -20 824 -20ZM230 421Q230 94 407 94Q508 94 608 180Q685 246 739 336L842 1019Q783 1064 696 1064T546 1035T434 958T346 845T282 708Q230 566 230 421Z" />
<glyph unicode="b" glyph-name="b" horiz-adv-x="1147" d="M612 14Q525 -20 412 -20T179 31L99 -5L294 1516L199 1550L215 1618L424 1650L467 1627L381 968Q473 1098 610 1146Q661 1163 733 1163T869 1131T975 1040Q1058 925 1058 730Q1058 569 984 398Q858 111
612 14ZM272 130Q335 78 430 78T587 107T699 187T785 302T846 438Q894 580 894 727T842 961T692 1048Q590 1048 488 969Q406 905 362 826L272 130Z" />
<glyph unicode="c" glyph-name="c" horiz-adv-x="897" d="M825 968Q733 1045 610 1045Q448 1045 344 878Q238 710 238 453Q238 272 298 182T465 92Q575 92 686 167Q720 190 756 217L788 151Q698 46 552 -1Q492 -20 415 -20T273 11T163 100Q71 220 71 430Q71 701
218 920Q319 1070 474 1132Q552 1163 612 1163T702 1160T762 1150Q823 1137 866 1115L825 968Z" />
<glyph unicode="d" glyph-name="d" d="M739 90Q739 96 739 102T739 120T739 141T740 158Q645 37 512 -4Q462 -20 393 -20T261 12T157 102Q76 216 76 412Q76 576 151 744Q232 925 369 1037Q523 1163 717 1163Q789 1163 885 1136L943 1515L815 1548L832 1615L1071
1650L1115 1627L901 158Q896 121 903 103T924 85Q959 85 1020 140L1047 96Q1004 31 916 -6Q882 -20 843 -20Q739 -20 739 90ZM867 1012Q803 1065 710 1065T553 1036T439 956T351 841T289 704Q240 565 240 417T290 181T433 94Q530 94 628 163Q708 220 758 296L867
1012Z" />
<glyph unicode="e" glyph-name="e" horiz-adv-x="1025" d="M492 92Q671 92 833 254L871 186Q820 114 746 68Q604 -20 485 -20T290 20Q83 128 83 422Q83 616 164 794Q281 1054 502 1136Q576 1163 652 1163T782 1144T870 1091Q940 1023 940 929T903 772T805 659T670
574T518 515Q366 469 250 467Q248 444 248 424T249 373T260 302T288 222T334 155Q395 92 492 92ZM254 557Q437 564 596 651Q707 711 752 800Q776 846 776 915T735 1026T630 1069T519 1046T432 984T363 893T310 784Q265 672 254 557Z" />
<glyph unicode="f" glyph-name="f" horiz-adv-x="676" d="M-168 -370Q-83 -404 -32 -404T44 -383T88 -324Q120 -259 138 -127L280 1040H141L153 1101L300 1150L314 1249Q338 1423 458 1548Q576 1670 715 1670Q815 1670 873 1644L827 1510L804 1524Q755 1553 675
1553T540 1474T469 1263L456 1155H707L695 1040H433L292 -74Q254 -386 82 -480Q24 -512 -24 -512T-97 -512T-144 -507Q-187 -501 -210 -494L-168 -370Z" />
<glyph unicode="g" glyph-name="g" horiz-adv-x="1144" d="M717 1163Q819 1163 927 1122L1043 1163L850 -77Q817 -295 642 -411Q495 -508 320 -508Q188 -508 101 -473L141 -325Q272 -381 368 -381T515 -369T600 -327Q666 -271 688 -131L732 150Q638 34 507 -6Q459
-20 391 -20T260 12T156 102Q75 216 75 412Q75 576 150 744Q231 925 368 1037Q522 1163 717 1163ZM861 1016Q797 1065 706 1065T552 1036T438 956T350 841T288 704Q239 565 239 417T289 181T432 94Q570 94 698 223Q731 257 753 289L861 1016Z" />
<glyph unicode="h" glyph-name="h" horiz-adv-x="1250" d="M901 -20Q792 -20 792 82Q792 89 792 110T799 176T814 269T831 366T847 458T865 551T884 655Q903 777 903 843T895 944T869 999Q838 1036 781 1036T669 1013T559 948Q441 862 360 742L260 0H105L305 1515L190
1548L203 1615L435 1650L479 1627L377 873Q519 1069 710 1140Q774 1163 832 1163T932 1148T1003 1098Q1063 1027 1063 867Q1063 772 1040 660L1010 505Q1004 467 996 422L980 331Q958 191 958 138T983 84T1031 99T1093 147L1119 103Q1103 71 1061 41Q974 -20 901
-20Z" />
<glyph unicode="i" glyph-name="i" horiz-adv-x="625" d="M265 -20Q145 -20 156 99Q160 156 177 279L285 1016L148 1056L162 1121L420 1163L461 1142L320 158Q315 120 324 103T348 85Q387 85 456 156L483 112Q435 37 344 -4Q307 -20 265 -20ZM374 1421T349 1448T323
1513Q323 1568 363 1608Q397 1642 441 1642T510 1615T535 1550Q535 1497 497 1457Q462 1421 418 1421Z" />
<glyph unicode="j" glyph-name="j" horiz-adv-x="622" d="M-214 -415Q-180 -432 -117 -432T-2 -393T86 -286Q149 -167 174 58L283 1016L140 1056L154 1121L419 1163L459 1142L324 2Q295 -251 182 -386Q72 -518 -102 -518Q-207 -518 -242 -481L-214 -415ZM373 1421T348
1448T322 1513Q322 1568 362 1608Q396 1642 440 1642T509 1615T534 1550Q534 1497 496 1457Q461 1421 417 1421Z" />
<glyph unicode="k" glyph-name="k" horiz-adv-x="1059" d="M305 1515L190 1548L202 1615L434 1650L478 1627L259 0H105L305 1515ZM1023 151L1051 101Q1007 27 896 -8Q861 -20 822 -20Q730 -20 666 88L366 610L368 611H366Q417 648 470 682L572 752Q753 881 790
1000Q800 1034 804 1064T820 1112T847 1140Q876 1163 912 1163T974 1141T1000 1088Q1004 974 866 858Q764 772 661 710L516 624L794 192Q861 96 914 96T1023 151Z" />
<glyph unicode="l" glyph-name="l" horiz-adv-x="598" d="M234 -20Q133 -20 133 93Q133 139 139 170L339 1515L220 1548L236 1615L465 1650L505 1627L289 158Q284 122 292 104T314 85Q358 85 425 155L451 112Q431 76 391 45Q307 -20 234 -20Z" />
<glyph unicode="m" glyph-name="m" horiz-adv-x="1880" d="M1537 -20Q1434 -20 1434 86Q1434 143 1447 231L1484 462Q1491 505 1500 554T1516 656Q1534 777 1534 843T1526 943T1502 998Q1472 1035 1418 1035T1318 1014T1224 957Q1128 883 1048 772Q1038 660 1012
505L944 0H786L849 457L864 552Q893 737 893 824T886 945T864 1000Q835 1037 775 1037T664 1014T560 950Q451 869 369 747L269 0H114L246 1002L149 1049L163 1121L373 1163L413 1143L387 888Q531 1076 708 1141Q769 1163 829 1163Q935 1163 991 1101T1052 902Q1183
1080 1350 1142Q1407 1163 1460 1163T1556 1147T1630 1094Q1694 1019 1694 867Q1694 781 1673 665T1644 508L1630 422Q1585 154 1598 104Q1603 85 1617 85Q1657 85 1730 156L1757 112Q1710 39 1616 -4Q1579 -20 1537 -20Z" />
<glyph unicode="n" glyph-name="n" horiz-adv-x="1253" d="M900 -21Q795 -21 795 81Q795 88 795 109T802 176T816 270L868 552Q906 756 906 833T899 944T875 1000Q846 1037 785 1037T671 1014T564 950Q449 865 368 745L269 0H114L247 1002L149 1049L163 1121L374
1163L414 1143L387 886Q534 1075 716 1140Q778 1163 834 1163T933 1148T1004 1098Q1066 1027 1066 868Q1066 779 1043 663T1013 507Q965 235 962 179Q957 85 984 85Q1021 85 1081 139L1107 95Q1064 31 974 -6Q939 -21 900 -21Z" />
<glyph unicode="o" glyph-name="o" horiz-adv-x="1123" d="M306 11Q87 106 87 458Q87 727 238 937Q339 1078 486 1134Q560 1163 649 1163T810 1132T930 1042Q1031 919 1031 685Q1031 416 880 206Q779 65 632 8Q557 -20 468 -20T306 11ZM252 455Q252 78 501 78Q676
78 778 288Q865 466 865 687Q865 1065 615 1065Q497 1065 408 964Q291 831 260 582Q252 516 252 455Z" />
<glyph unicode="p" glyph-name="p" horiz-adv-x="1147" d="M612 14Q526 -20 436 -20T263 4L191 -520H40L246 1017L138 1057L152 1121L381 1163L420 1143L399 990Q490 1107 619 1148Q666 1163 735 1163T869 1131T975 1040Q1058 925 1058 730Q1058 566 984 397Q857
110 612 14ZM280 124Q342 78 432 78T584 106T695 184T781 297T844 432Q894 576 894 728T839 964T693 1048Q601 1048 508 982Q432 928 380 850L280 124Z" />
<glyph unicode="q" glyph-name="q" horiz-adv-x="1145" d="M721 144Q583 -20 405 -20Q241 -20 154 102Q73 216 73 412Q73 576 148 744Q229 925 366 1037Q520 1163 714 1163Q816 1163 920 1122L926 1129L1016 1139L804 -340Q800 -369 808 -391T827 -414Q870 -414
940 -342L966 -387Q945 -421 903 -453Q814 -518 742 -518Q643 -518 643 -414Q643 -395 650 -347L721 144ZM845 1022Q787 1064 701 1064T552 1036T439 958T351 845T288 710Q237 568 237 415T290 178T430 94Q538 94 646 182Q731 250 770 331L789 264Q773 209 721
144L834 946Q841 996 845 1022Z" />
<glyph unicode="r" glyph-name="r" horiz-adv-x="824" d="M266 1002L169 1049L183 1121L395 1163L434 1143L405 889Q452 987 546 1066Q661 1162 784 1162Q833 1162 848 1149L814 983Q786 997 731 997T629 981T539 932Q441 858 386 734L288 0H133L266 1002Z" />
<glyph unicode="s" glyph-name="s" horiz-adv-x="834" d="M54 164Q154 89 323 89Q484 89 537 178Q557 211 557 259T538 343T488 408T422 464L356 513Q266 583 226 633Q139 742 139 849Q139 992 255 1080Q363 1163 523 1163Q630 1163 692 1146T767 1122L734 987Q705
1027 600 1050Q562 1059 493 1059T362 1019Q292 973 292 880Q292 778 406 684L548 573Q709 445 709 292Q709 147 590 60Q478 -20 314 -20Q171 -20 68 20Q38 31 25 43L54 164Z" />
<glyph unicode="t" glyph-name="t" horiz-adv-x="706" d="M326 -20Q150 -20 150 147V160Q150 179 154 207L262 1043H138L154 1113L281 1151Q321 1206 393 1416H469L436 1155H697L681 1043H422L326 344Q312 240 312 201T316 143T331 113Q352 92 392 92T461 101T518
124Q569 148 612 180L626 116Q590 73 525 40Q404 -20 326 -20Z" />
<glyph unicode="u" glyph-name="u" horiz-adv-x="1204" d="M779 169Q612 -20 411 -20Q230 -20 182 122Q165 175 165 231T168 331T177 420T188 514L255 1002L158 1049L172 1120L382 1163L422 1142L353 599L342 514Q321 363 321 292T332 184T364 126Q399 90 458
90T562 106T648 150Q730 201 792 279L907 1155H1062L932 159Q923 87 956 87Q998 87 1067 158L1093 113Q1051 43 949 -2Q911 -18 862 -18T792 12T771 69T774 110T777 138T779 169Z" />
<glyph unicode="v" glyph-name="v" horiz-adv-x="1046" d="M329 -20L172 979Q159 1047 125 1049Q102 1050 83 1035Q83 1035 50 1008L26 1058Q62 1115 141 1150Q172 1163 207 1163Q299 1163 320 1081Q327 1056 330 1026L406 352L428 132L574 327Q680 486 724 583Q807
763 831 924Q836 971 819 1017T802 1092T823 1142T887 1163T959 1111T987 981T959 817T888 643Q815 494 692 313L452 -9L329 -20Z" />
<glyph unicode="w" glyph-name="w" horiz-adv-x="1683" d="M268 323L174 979Q166 1016 156 1032T124 1049T85 1036Q85 1036 51 1008L26 1058Q61 1115 142 1150Q174 1163 209 1163T267 1154T304 1128Q326 1098 335 1026L414 311L428 111L498 290L872 1155H1016L1087
311L1098 111L1228 316Q1385 556 1443 808Q1468 917 1460 956T1447 1014T1436 1048T1431 1092T1453 1142T1509 1163Q1615 1163 1615 967Q1615 740 1338 313L1128 -8L977 -19L941 322L899 806L892 935L849 805L608 289L460 -8L324 -20L268 323Z" />
<glyph unicode="x" glyph-name="x" horiz-adv-x="989" d="M817 85Q860 85 934 159L964 114Q947 80 904 48Q813 -20 744 -20Q685 -20 661 1Q629 30 611 85L479 462L163 0H-5L432 589L263 996Q251 1023 239 1040T195 1058T91 999L63 1044Q79 1072 122 1103Q209 1163
278 1163Q342 1163 367 1142Q402 1113 420 1059L525 694L841 1155H1011L571 564L756 148Q767 119 780 102T817 85Z" />
<glyph unicode="y" glyph-name="y" horiz-adv-x="1051" d="M895 1162Q1005 1162 1005 982Q1005 800 858 502L746 290Q520 -160 379 -329Q300 -443 156 -488Q99 -505 54 -505T-15 -503T-62 -496Q-114 -486 -143 -476L-106 -349Q-98 -352 -85 -358T-50 -372Q2 -388
50 -388T142 -372T230 -319Q332 -234 402 -79H352L172 979Q161 1022 151 1035T118 1049T35 993L11 1042Q46 1105 138 1148Q171 1163 206 1163T262 1154T298 1126Q317 1101 331 1026L432 258L458 -23L614 276Q624 296 646 342L703 464Q828 726 849 924Q854 965 842
997L824 1046Q818 1061 818 1091T840 1141T895 1162Z" />
<glyph unicode="z" glyph-name="z" horiz-adv-x="1001" d="M59 -22L4 28L649 850L774 997Q564 1006 480 1006Q358 1006 341 1004T297 986T249 946Q204 892 198 818H145Q145 824 145 842T148 904T161 998Q182 1115 221 1143Q250 1163 316 1163T450 1158T587 1145Q762
1127 797 1127T848 1129T879 1135Q917 1144 939 1163L938 1159L984 1116L315 253L218 137Q245 136 284 136T369 134L460 132Q505 131 543 131T609 130T643 129Q799 129 826 315H878Q860 41 795 -2Q762 -22 695 -22Q628 -22 547 -16L316 4Q210 13 155 13T59 -22Z"
/>
<glyph unicode="{" glyph-name="braceleft" horiz-adv-x="997" d="M986 1676Q976 1626 976 1606H700L604 970Q593 893 498 844L412 806L367 786Q346 778 339 776Q449 723 484 694Q553 638 543 576L449 -55H724Q723 -60 722 -71T718 -96T714 -126L648 -141Q545
-164 474 -164T377 -159T335 -140Q305 -114 305 -48Q305 -44 309 -15L350 274Q369 410 395 579Q400 636 257 694Q212 713 165 726L180 827Q317 862 365 885Q448 924 454 967L535 1513Q553 1632 592 1672Q630 1713 723 1713Q801 1713 986 1676Z" />
<glyph unicode="|" glyph-name="bar" horiz-adv-x="854" d="M380 1780H518V-186H380V1780Z" />
<glyph unicode="}" glyph-name="braceright" horiz-adv-x="1007" d="M84 -130Q94 -80 94 -60H370L466 576Q477 653 572 702L658 740L703 760Q724 768 731 770Q621 823 586 852Q517 908 527 970L621 1601H346Q347 1606 348 1617T352 1642T356 1672L422 1687Q525
1710 596 1710T693 1705T735 1686Q765 1660 765 1594Q765 1590 761 1561L720 1272Q701 1136 675 967Q670 910 813 852Q858 833 905 820L890 719Q753 684 705 661Q622 622 616 579L535 33Q517 -86 478 -126Q440 -167 347 -167Q269 -167 84 -130Z" />
<glyph unicode="~" glyph-name="asciitilde" horiz-adv-x="1137" d="M431 913Q298 913 213 785L156 845Q178 913 262 976Q357 1046 461 1046Q544 1046 644 958Q706 903 739 887T802 871Q927 871 1012 999L1070 939Q1047 862 967 803Q880 738 772 738Q686 738 589
826Q529 880 495 896T431 913Z" />
<glyph unicode="&#xa1;" glyph-name="exclamdown" horiz-adv-x="686" d="M302 -434H107L338 856H449L302 -434ZM527 1348T540 1335T558 1305T563 1262T547 1210T511 1168Q469 1134 417 1134T345 1160T326 1208T328 1248T344 1291T378 1330Q420 1362 454 1362T508 1355Z" />
<glyph unicode="&#xa2;" glyph-name="cent" horiz-adv-x="1056" d="M878 968Q786 1045 663 1045Q501 1045 396 878Q291 710 291 453Q291 272 351 182T518 92Q628 92 739 167Q773 190 809 217L841 151Q714 9 538 -15L498 -215L389 -171L420 -16Q207 11 144 256Q124
334 124 420T138 586T181 742T251 888T348 1014Q465 1132 621 1157L670 1358H791L743 1161Q847 1150 919 1115L878 968Z" />
<glyph unicode="&#xa3;" glyph-name="sterling" horiz-adv-x="1368" d="M86 -16Q22 -16 22 42Q22 102 102 152Q178 199 261 199Q304 253 340 412Q349 454 354 489L396 749H212L227 854H413L437 997Q471 1224 615 1382Q768 1549 972 1549Q1057 1549 1119 1534T1230
1467L1140 1332Q1102 1390 982 1424Q941 1436 894 1436T800 1415T714 1342Q625 1230 591 999Q588 976 582 938L567 854H903L889 749H548Q538 697 529 629T504 494T470 371Q435 271 366 171Q409 160 457 143T560 108Q689 65 796 65Q1111 65 1111 313Q1111 393 1056
466Q1041 486 1027 498L1136 601Q1271 491 1271 322Q1271 93 1041 9Q951 -24 842 -24T661 -12T526 19T403 57T294 94Q236 22 142 -7Q113 -16 86 -16Z" />
<glyph unicode="&#xa4;" glyph-name="currency" horiz-adv-x="1540" d="M1041 338Q926 252 782 252T523 333L331 141L239 231L429 422Q338 541 338 689T427 955L236 1147L327 1238L519 1045Q634 1128 780 1128T1046 1037L1235 1225L1325 1134L1136 945Q1218 828
1218 685T1131 428L1323 237L1232 146L1041 338ZM457 690Q457 553 550 456Q644 359 778 359Q911 359 1004 456Q1098 553 1098 690Q1098 827 1004 924Q911 1021 778 1021Q644 1021 550 924Q457 827 457 690Z" />
<glyph unicode="&#xa5;" glyph-name="yen" horiz-adv-x="1483" d="M389 70L628 95L661 381H234L246 483H672L702 738H274L285 841H667L375 1436L246 1451L255 1531H745L736 1451L538 1436L753 959L802 843L876 965L1235 1436L1071 1451L1080 1531H1534L1525 1452L1387
1429L911 841H1280L1268 738H840L810 483H1239L1227 381H798L765 95L1005 70L997 0H383L389 70Z" />
<glyph unicode="&#xa6;" glyph-name="brokenbar" horiz-adv-x="854" d="M380 1780H518V886H380V1780ZM380 708H518V-186H380V708Z" />
<glyph unicode="&#xa7;" glyph-name="section" horiz-adv-x="1194" d="M937 397Q1006 324 1006 232Q1006 80 894 -30Q774 -147 573 -178Q517 -186 462 -186T341 -178T219 -156Q96 -128 55 -100L95 230H189L209 -2Q259 -56 317 -71Q401 -94 472 -94T604 -83T717
-41Q840 29 858 170Q859 181 859 207T835 271T762 340T648 400L516 454Q345 523 285 575Q180 665 180 773Q180 894 270 1029Q294 1064 321 1093Q245 1169 245 1267Q245 1419 359 1526Q477 1638 661 1666Q711 1673 765 1673T880 1666T990 1648Q1088 1626 1133 1597L1096
1296H1019L984 1522Q930 1587 728 1587Q568 1587 469 1494Q396 1424 396 1324Q396 1201 606 1106L736 1049Q905 975 963 922Q1065 829 1065 721Q1065 635 1026 546T937 397ZM390 1038Q316 930 316 842Q316 712 504 626Q562 599 625 573L751 519Q814 491 866 457Q927
559 927 647Q927 775 748 866Q691 894 628 920L504 975Q442 1003 390 1038Z" />
<glyph unicode="&#xa8;" glyph-name="dieresis" horiz-adv-x="809" d="M502 1467T504 1500T517 1555T543 1593Q577 1627 623 1627T694 1601T719 1536Q719 1481 680 1442Q644 1406 610 1406Q556 1406 529 1436ZM135 1406T110 1434T84 1502Q84 1555 122 1593Q156
1627 201 1627T272 1601T297 1536Q297 1481 258 1442Q222 1406 179 1406Z" />
<glyph unicode="&#xa9;" glyph-name="copyright" horiz-adv-x="1768" d="M178 805Q178 1010 282 1186Q437 1450 732 1532Q829 1558 933 1558Q1246 1558 1467 1338Q1608 1199 1662 1006Q1689 909 1689 805T1662 604T1586 424T1467 271T1314 154Q1136 51 933 51Q730
51 552 154Q384 250 282 424Q178 598 178 805ZM275 805Q275 529 466 333Q587 209 756 161Q841 137 956 137T1191 190T1400 333T1541 545T1592 805Q1592 943 1541 1064T1401 1277T1191 1420T956 1473T757 1449T599 1382T467 1277T364 1142Q275 985 275 805ZM1189
512L1213 457Q1145 398 1008 373Q965 365 898 365T760 399T642 494Q542 616 542 801Q542 804 542 807Q542 990 654 1114Q774 1246 969 1246Q1132 1246 1203 1208V1003H1142L1099 1139Q1055 1177 937 1177Q819 1177 746 1092Q666 1001 666 848Q666 652 758 543Q840
447 960 447T1189 512Z" />
<glyph unicode="&#xaa;" glyph-name="ordfeminine" horiz-adv-x="825" d="M609 907Q481 743 339 743Q110 743 110 1040Q110 1240 250 1403Q341 1510 472 1554Q539 1577 620 1577T789 1548L875 1579L746 902Q735 820 765 820Q787 820 833 851L852 818Q845 804 807
783Q735 743 699 743T645 753T616 784Q592 827 610 895L609 907ZM306 870T332 854T395 838T461 852T520 888Q574 929 618 985L704 1441Q659 1495 585 1495T450 1456T348 1355Q267 1232 267 1058Q267 947 286 909Z" />
<glyph unicode="&#xab;" glyph-name="guillemotleft" horiz-adv-x="1878" d="M500 674L1194 1086L1225 993L675 614L1122 242L1066 152L482 547L500 674ZM919 674L1613 1086L1644 993L1094 614L1541 242L1485 152L901 547L919 674Z" />
<glyph unicode="&#xac;" glyph-name="logicalnot" horiz-adv-x="1370" d="M226 837H1188L1126 322H985L1035 731H214L226 837Z" />
<glyph unicode="&#xad;" glyph-name="uni00AD" horiz-adv-x="1706" />
<glyph unicode="&#xae;" glyph-name="registered" horiz-adv-x="1768" d="M178 806Q178 910 205 1006T281 1187T399 1339T552 1457Q727 1559 933 1559Q1246 1559 1467 1340Q1608 1200 1662 1006Q1689 910 1689 806T1662 605T1586 425T1467 272T1314 154Q1136 52
933 52Q730 52 552 154Q384 251 282 424Q178 599 178 806ZM275 806Q275 530 466 334Q587 210 756 162Q841 138 956 138T1191 190T1400 334T1541 546T1592 806Q1592 944 1541 1065T1401 1278T1191 1421T956 1474T757 1450T599 1383T467 1278T364 1142Q275 986 275
806ZM1270 1014Q1270 801 1028 765Q1080 736 1114 690T1174 596L1221 508Q1243 468 1272 449Q1298 438 1338 438V375H1200Q1180 375 1163 397T1128 455T1090 533T1044 619Q982 717 905 751H779V452L898 436V375H572V436L665 452V1154L572 1173V1240H715L954 1245Q1181
1245 1248 1108Q1269 1066 1270 1014ZM1144 997Q1144 1172 930 1172Q825 1172 779 1162V823Q818 817 876 817H953Q1040 817 1094 872Q1144 924 1144 997Z" />
<glyph unicode="&#xaf;" glyph-name="overscore" horiz-adv-x="614" d="M51 1551H561L556 1432H47L51 1551Z" />
<glyph unicode="&#xb0;" glyph-name="degree" horiz-adv-x="899" d="M524 955Q454 955 396 980Q276 1033 227 1153Q204 1210 204 1242Q204 1345 230 1404T302 1508Q399 1600 542 1600Q679 1600 774 1506Q864 1415 864 1283Q864 1141 764 1047Q666 955 524 955ZM530
1052Q576 1052 616 1069T686 1116Q751 1183 751 1284Q751 1376 691 1438Q629 1502 538 1502Q443 1502 381 1438Q317 1372 317 1273Q317 1184 377 1118T530 1052Z" />
<glyph unicode="&#xb1;" glyph-name="plusminus" horiz-adv-x="1370" d="M606 536L634 715L476 709H251L266 836H491L647 827Q648 843 650 866T655 915T659 965T663 1005L690 1235H833L807 1005L777 827L908 836H1163L1149 709H893L765 715Q764 699 762 675L758
626Q756 600 754 576T750 536L722 295H578L606 536ZM193 150H1062L1049 30H180L193 150Z" />
<glyph unicode="&#xb2;" glyph-name="twosuperior" horiz-adv-x="1163" d="M662 1542Q468 1542 325 1392L269 1468Q322 1537 439 1596Q578 1665 724 1665Q872 1665 960 1591Q1036 1527 1036 1448T1011 1305T942 1182T839 1068T710 960T565 856L413 756L932 776L1016
935L1099 912L1016 655H235L198 733L311 800Q717 1041 838 1256Q875 1322 875 1373T860 1454T816 1502Q759 1542 662 1542Z" />
<glyph unicode="&#xb3;" glyph-name="threesuperior" horiz-adv-x="1071" d="M290 1538Q468 1662 699 1662Q839 1662 916 1598Q984 1542 984 1451Q984 1251 721 1152Q861 1152 924 1072Q971 1014 971 928Q971 812 888 718Q782 597 583 562Q523 552 481 552T402
556T328 570Q238 591 185 624L199 712Q302 655 448 655Q577 655 680 718Q806 795 806 926Q806 990 759 1034T614 1080L399 1030L415 1131Q580 1164 656 1211T770 1308T813 1404T810 1477Q782 1556 642 1556Q517 1556 388 1494Q350 1476 319 1455L290 1538Z" />
<glyph unicode="&#xb4;" glyph-name="acute" horiz-adv-x="559" d="M57 1304L379 1729L492 1596Q461 1543 327 1426L247 1359Q158 1288 100 1255L57 1304Z" />
<glyph unicode="&#xb5;" glyph-name="mu" horiz-adv-x="1364" d="M500 -20Q384 -18 338 58L273 -372H125L234 358Q254 502 279 652T320 961Q322 998 319 1021T292 1045T223 1002L196 1045Q210 1073 247 1099Q320 1150 380 1150Q484 1150 484 1046Q484 971 454
781L408 496Q390 388 390 296Q390 90 558 90Q674 90 812 205Q848 235 872 261L991 1140H1147L1019 189Q1015 157 1015 122T1043 87T1121 133L1148 87Q1114 33 1024 -4Q992 -18 961 -18T907 -12Q852 5 852 85Q852 105 855 131Q756 29 612 -7Q559 -20 500 -20Z" />
<glyph unicode="&#xb6;" glyph-name="paragraph" horiz-adv-x="1364" d="M262 70L444 94L537 774Q284 780 206 972Q180 1038 180 1130T209 1304T304 1445Q443 1571 731 1571Q829 1571 910 1564L1030 1555Q1068 1552 1107 1552H1368L1359 1449L1172 1430Q1154 1274
1130 1104L1032 420Q1008 250 989 94L1164 69L1156 0H819L1015 1428L976 1434Q911 1445 783 1445L585 0H256L262 70Z" />
<glyph unicode="&#xb7;" glyph-name="middot" horiz-adv-x="686" d="M368 628T322 628T254 652T231 714T245 779T277 822Q313 856 365 856T436 830T455 782Q455 701 412 665Z" />
<glyph unicode="&#xb8;" glyph-name="cedilla" horiz-adv-x="479" d="M39 -331Q71 -348 134 -348T250 -293T303 -73Q303 -35 287 21L333 25L377 21Q409 -33 409 -135Q409 -408 247 -452Q203 -464 166 -464T108 -462T68 -456Q25 -447 11 -436L39 -331Z" />
<glyph unicode="&#xb9;" glyph-name="onesuperior" horiz-adv-x="1020" d="M251 725L503 746L598 1461Q589 1455 545 1443Q445 1416 411 1408Q338 1390 313 1380L308 1464Q486 1517 674 1633Q700 1649 713 1659L772 1642L652 746L907 724L898 654H242L251 725Z" />
<glyph unicode="&#xba;" glyph-name="ordmasculine" horiz-adv-x="835" d="M789 924T727 860T589 765T434 733T297 758T200 830Q120 924 120 1065T160 1300Q239 1487 405 1557Q481 1589 555 1589Q711 1589 792 1488Q865 1396 865 1254T827 1018ZM366 838Q396 818
416 818T438 818Q577 818 648 940Q709 1046 709 1220Q709 1424 618 1488Q586 1510 528 1510T420 1473T337 1378Q274 1262 274 1099Q274 901 366 838Z" />
<glyph unicode="&#xbb;" glyph-name="guillemotright" horiz-adv-x="1878" d="M863 564L169 152L138 245L688 624L241 996L297 1086L881 691L863 564ZM1539 564L845 152L814 245L1364 624L917 996L973 1086L1557 691L1539 564Z" />
<glyph unicode="&#xbc;" glyph-name="onequarter" horiz-adv-x="2560" d="M1903 173H1384L1354 250L1964 1114L2034 1115L2108 1032L1506 260L1919 286L1960 579L2121 600L2080 296L2345 313L2330 173H2063L2017 -175H1855L1903 173ZM1501 1530H1633L952 0H820L1501
1530ZM282 725L534 746L629 1461Q620 1455 576 1443Q476 1416 442 1408Q369 1390 344 1380L339 1464Q517 1517 705 1633Q731 1649 744 1659L803 1642L683 746L938 724L929 654H273L282 725Z" />
<glyph unicode="&#xbd;" glyph-name="onehalf" horiz-adv-x="2560" d="M1897 828Q1703 828 1560 678L1504 754Q1557 823 1674 882Q1813 951 1959 951Q2107 951 2195 877Q2271 813 2271 734T2246 591T2177 468T2074 354T1945 246T1800 142L1648 42L2167 62L2251
221L2334 198L2251 -59H1470L1433 19L1546 86Q1952 327 2073 542Q2110 608 2110 659T2095 740T2051 788Q1994 828 1897 828ZM1501 1530H1633L952 0H820L1501 1530ZM282 725L534 746L629 1461Q620 1455 576 1443Q476 1416 442 1408Q369 1390 344 1380L339 1464Q517
1517 705 1633Q731 1649 744 1659L803 1642L683 746L938 724L929 654H273L282 725Z" />
<glyph unicode="&#xbe;" glyph-name="threequarters" horiz-adv-x="2563" d="M1903 173H1384L1354 250L1964 1114L2034 1115L2108 1032L1506 260L1919 286L1960 579L2121 600L2080 296L2345 313L2330 173H2063L2017 -175H1855L1903 173ZM367 1538Q545 1662 776
1662Q916 1662 993 1598Q1061 1542 1061 1451Q1061 1251 798 1152Q938 1152 1001 1072Q1048 1014 1048 928Q1048 812 965 718Q859 597 660 562Q600 552 558 552T479 556T405 570Q315 591 262 624L276 712Q379 655 525 655Q654 655 757 718Q883 795 883 926Q883
990 836 1034T691 1080L476 1030L492 1131Q657 1164 733 1211T847 1308T890 1404T887 1477Q859 1556 719 1556Q594 1556 465 1494Q427 1476 396 1455L367 1538ZM1557 1530H1689L1008 0H876L1557 1530Z" />
<glyph unicode="&#xbf;" glyph-name="questiondown" horiz-adv-x="1028" d="M567 1204Q475 1204 475 1284Q475 1350 525 1393Q570 1432 616 1432T687 1409T713 1349T699 1287T662 1244Q617 1204 567 1204ZM646 632Q672 669 672 733T622 911L725 951L739 950Q793
896 813 768Q819 729 819 684T790 599T714 524T608 459L404 348Q266 269 234 197Q222 158 222 88T250 -54T327 -173Q424 -270 576 -270Q680 -270 748 -232L726 -346Q690 -382 591 -395Q561 -399 533 -399Q290 -399 176 -258Q84 -144 84 41Q84 259 270 385Q323 421
378 450L486 507Q601 565 646 632Z" />
<glyph unicode="&#xc0;" glyph-name="Agrave" horiz-adv-x="1264" d="M726 1530H893L1128 96L1295 69L1289 0H801L806 69L971 93L919 449H319L148 94L321 69L316 0H-148L-140 69L4 93L726 1530ZM905 547L781 1403L367 547H905ZM834 1614Q557 1775 503 1890L609
2000L880 1651L834 1614Z" />
<glyph unicode="&#xc1;" glyph-name="Aacute" horiz-adv-x="1264" d="M726 1530H893L1128 96L1295 69L1289 0H801L806 69L971 93L919 449H319L148 94L321 69L316 0H-148L-140 69L4 93L726 1530ZM905 547L781 1403L367 547H905ZM737 1651L1019 2000L1118 1890Q1067
1790 867 1666L781 1614L737 1651Z" />
<glyph unicode="&#xc2;" glyph-name="Acircumflex" horiz-adv-x="1264" d="M726 1530H893L1128 96L1295 69L1289 0H801L806 69L971 93L919 449H319L148 94L321 69L316 0H-148L-140 69L4 93L726 1530ZM905 547L781 1403L367 547H905ZM457 1666L778 2000H920L1139
1665L1084 1617L842 1873L507 1619L457 1666Z" />
<glyph unicode="&#xc3;" glyph-name="Atilde" horiz-adv-x="1264" d="M726 1530H893L1128 96L1295 69L1289 0H801L806 69L971 93L919 449H319L148 94L321 69L316 0H-148L-140 69L4 93L726 1530ZM905 547L781 1403L367 547H905ZM667 1835Q598 1835 507 1731L468
1800Q524 1909 634 1951Q671 1965 706 1965T766 1954T812 1927T850 1892T886 1857Q929 1819 963 1819T1021 1831T1064 1861T1100 1900L1127 1938L1175 1863Q1151 1791 1084 1740Q1014 1689 937 1689Q848 1689 786 1761Q747 1805 721 1819T667 1835Z" />
<glyph unicode="&#xc4;" glyph-name="Adieresis" horiz-adv-x="1264" d="M726 1530H893L1128 96L1295 69L1289 0H801L806 69L971 93L919 449H319L148 94L321 69L316 0H-148L-140 69L4 93L726 1530ZM905 547L781 1403L367 547H905ZM916 1775T916 1809T927 1865T956
1904Q992 1938 1036 1938T1104 1912T1129 1846Q1129 1793 1090 1753Q1056 1717 1022 1717Q967 1717 942 1746ZM551 1725Q498 1750 498 1812Q498 1865 536 1904Q571 1938 615 1938T684 1912T709 1846Q709 1793 670 1753Q636 1717 602 1717T551 1725Z" />
<glyph unicode="&#xc5;" glyph-name="Aring" horiz-adv-x="1264" d="M704 1486Q598 1503 551 1563T504 1703Q504 1853 627 1932Q719 1990 843 1990Q976 1990 1046 1926Q1108 1869 1108 1773Q1108 1662 1037 1584Q984 1527 898 1499L1128 96L1295 69L1289 0H801L806
69L971 93L919 449H319L148 94L321 69L316 0H-148L-140 69L4 93L704 1486ZM621 1662Q661 1546 794 1546Q926 1546 978 1647Q1002 1693 1002 1740T992 1818T958 1873Q911 1924 831 1924Q690 1924 636 1824Q611 1781 611 1736T621 1662ZM905 547L781 1403L367 547H905Z"
/>
<glyph unicode="&#xc6;" glyph-name="AE" horiz-adv-x="1834" d="M726 1431L423 1450L434 1530H1786L1779 1220H1693L1657 1431L1156 1443L1070 840L1546 846L1536 721L1061 734L977 94L1585 113L1698 341L1782 316L1693 0H662L670 69L817 93L869 500H390L188
94L399 69L394 0H-142L-129 69L20 93L726 1431ZM882 597L990 1430L856 1434L439 597H882Z" />
<glyph unicode="&#xc7;" glyph-name="Ccedilla" horiz-adv-x="1251" d="M333 -329Q365 -346 428 -346T538 -297Q597 -235 597 -89Q597 -50 591 -16Q345 -16 211 194Q93 378 93 646Q93 1035 314 1292Q454 1455 644 1516Q739 1546 822 1546T960 1541T1058 1529T1135
1512L1238 1485L1170 1122H1076L1072 1397Q1003 1435 939 1442T799 1450T644 1415T501 1318T392 1177Q260 947 260 665Q260 264 462 126Q531 79 631 79Q770 79 868 135Q902 154 922 179Q923 184 932 216L972 358Q982 392 984 402L1082 401L1042 70L982 50Q832 0
686 -12Q703 -62 703 -111T698 -217T672 -325T618 -408Q559 -462 443 -462Q342 -462 305 -434L333 -329Z" />
<glyph unicode="&#xc8;" glyph-name="Egrave" horiz-adv-x="1210" d="M46 69L193 93L373 1430L241 1449L251 1530H1162L1155 1220H1069L1033 1427L536 1443L456 840L922 846L912 721L441 734L353 94L961 113L1074 341L1158 316L1069 0H38L46 69ZM812 1614Q535
1775 481 1890L587 2000L858 1651L812 1614Z" />
<glyph unicode="&#xc9;" glyph-name="Eacute" horiz-adv-x="1210" d="M46 69L193 93L373 1430L241 1449L251 1530H1162L1155 1220H1069L1033 1427L536 1443L456 840L922 846L912 721L441 734L353 94L961 113L1074 341L1158 316L1069 0H38L46 69ZM715 1651L997
2000L1096 1890Q1045 1790 845 1666L759 1614L715 1651Z" />
<glyph unicode="&#xca;" glyph-name="Ecircumflex" horiz-adv-x="1210" d="M46 69L193 93L373 1430L241 1449L251 1530H1162L1155 1220H1069L1033 1427L536 1443L456 840L922 846L912 721L441 734L353 94L961 113L1074 341L1158 316L1069 0H38L46 69ZM435 1666L756
2000H898L1117 1665L1062 1617L820 1873L485 1619L435 1666Z" />
<glyph unicode="&#xcb;" glyph-name="Edieresis" horiz-adv-x="1210" d="M46 69L193 93L373 1430L241 1449L251 1530H1162L1155 1220H1069L1033 1427L536 1443L456 840L922 846L912 721L441 734L353 94L961 113L1074 341L1158 316L1069 0H38L46 69ZM894 1775T894
1809T905 1865T934 1904Q970 1938 1014 1938T1082 1912T1107 1846Q1107 1793 1068 1753Q1034 1717 1000 1717Q945 1717 920 1746ZM529 1725Q476 1750 476 1812Q476 1865 514 1904Q549 1938 593 1938T662 1912T687 1846Q687 1793 648 1753Q614 1717 580 1717T529
1725Z" />
<glyph unicode="&#xcc;" glyph-name="Igrave" horiz-adv-x="717" d="M61 69L210 94L390 1430L255 1449L265 1530H710L702 1449L551 1430L371 94L527 70L520 0H54L61 69ZM560 1614Q283 1775 229 1890L335 2000L606 1651L560 1614Z" />
<glyph unicode="&#xcd;" glyph-name="Iacute" horiz-adv-x="717" d="M61 69L210 94L390 1430L255 1449L265 1530H710L702 1449L551 1430L371 94L527 70L520 0H54L61 69ZM463 1651L745 2000L844 1890Q793 1790 593 1666L507 1614L463 1651Z" />
<glyph unicode="&#xce;" glyph-name="Icircumflex" horiz-adv-x="717" d="M61 69L210 94L390 1430L255 1449L265 1530H710L702 1449L551 1430L371 94L527 70L520 0H54L61 69ZM183 1666L504 2000H646L865 1665L810 1617L568 1873L233 1619L183 1666Z" />
<glyph unicode="&#xcf;" glyph-name="Idieresis" horiz-adv-x="717" d="M61 69L210 94L390 1430L255 1449L265 1530H710L702 1449L551 1430L371 94L527 70L520 0H54L61 69ZM642 1775T642 1809T653 1865T682 1904Q718 1938 762 1938T830 1912T855 1846Q855 1793
816 1753Q782 1717 748 1717Q693 1717 668 1746ZM277 1725Q224 1750 224 1812Q224 1865 262 1904Q297 1938 341 1938T410 1912T435 1846Q435 1793 396 1753Q362 1717 328 1717T277 1725Z" />
<glyph unicode="&#xd0;" glyph-name="Eth" horiz-adv-x="1426" d="M484 1532L805 1548Q1093 1548 1236 1376Q1371 1213 1371 906Q1371 517 1158 253Q1015 77 808 14Q712 -14 606 -14Q579 -14 562 -13L500 -9Q485 -8 471 -7T430 -4T374 -1L316 1Q287 2 266 2H39L46
71L193 96L279 731H116L129 836H293L374 1432L242 1451L252 1532H484ZM355 108Q486 81 631 81Q916 98 1070 354Q1209 582 1209 900Q1209 1327 956 1422Q872 1454 760 1454Q673 1454 534 1435L452 836H868L855 731H438L354 107L355 108Z" />
<glyph unicode="&#xd1;" glyph-name="Ntilde" horiz-adv-x="1521" d="M31 69L171 92L361 1430L216 1449L230 1530H531L1046 368L1112 172L1278 1431L1127 1449L1137 1530H1572L1564 1449L1412 1430L1198 0H1046L535 1136L471 1336L310 94L474 70L468 0H24L31 69ZM798
1835Q729 1835 638 1731L599 1800Q655 1909 765 1951Q802 1965 837 1965T897 1954T943 1927T981 1892T1017 1857Q1060 1819 1094 1819T1152 1831T1195 1861T1231 1900L1258 1938L1306 1863Q1282 1791 1215 1740Q1145 1689 1068 1689Q979 1689 917 1761Q878 1805
852 1819T798 1835Z" />
<glyph unicode="&#xd2;" glyph-name="Ograve" horiz-adv-x="1352" d="M598 -20Q492 -20 401 27T244 160Q106 345 106 661Q106 1034 306 1288Q438 1456 618 1518Q709 1550 820 1550T1023 1498T1178 1356Q1305 1169 1305 869Q1305 498 1108 243Q904 -20 598 -20ZM273
704Q273 80 628 76Q736 76 831 134Q1025 251 1104 539Q1139 671 1139 824Q1139 1275 950 1408Q883 1454 797 1454T644 1427T520 1349T416 1228Q273 1009 273 704ZM877 1614Q600 1775 546 1890L652 2000L923 1651L877 1614Z" />
<glyph unicode="&#xd3;" glyph-name="Oacute" horiz-adv-x="1352" d="M598 -20Q492 -20 401 27T244 160Q106 345 106 661Q106 1034 306 1288Q438 1456 618 1518Q709 1550 820 1550T1023 1498T1178 1356Q1305 1169 1305 869Q1305 498 1108 243Q904 -20 598 -20ZM273
704Q273 80 628 76Q736 76 831 134Q1025 251 1104 539Q1139 671 1139 824Q1139 1275 950 1408Q883 1454 797 1454T644 1427T520 1349T416 1228Q273 1009 273 704ZM780 1651L1062 2000L1161 1890Q1110 1790 910 1666L824 1614L780 1651Z" />
<glyph unicode="&#xd4;" glyph-name="Ocircumflex" horiz-adv-x="1352" d="M598 -20Q492 -20 401 27T244 160Q106 345 106 661Q106 1034 306 1288Q438 1456 618 1518Q709 1550 820 1550T1023 1498T1178 1356Q1305 1169 1305 869Q1305 498 1108 243Q904 -20 598
-20ZM273 704Q273 80 628 76Q736 76 831 134Q1025 251 1104 539Q1139 671 1139 824Q1139 1275 950 1408Q883 1454 797 1454T644 1427T520 1349T416 1228Q273 1009 273 704ZM500 1666L821 2000H963L1182 1665L1127 1617L885 1873L550 1619L500 1666Z" />
<glyph unicode="&#xd5;" glyph-name="Otilde" horiz-adv-x="1352" d="M598 -20Q492 -20 401 27T244 160Q106 345 106 661Q106 1034 306 1288Q438 1456 618 1518Q709 1550 820 1550T1023 1498T1178 1356Q1305 1169 1305 869Q1305 498 1108 243Q904 -20 598 -20ZM273
704Q273 80 628 76Q736 76 831 134Q1025 251 1104 539Q1139 671 1139 824Q1139 1275 950 1408Q883 1454 797 1454T644 1427T520 1349T416 1228Q273 1009 273 704ZM710 1835Q641 1835 550 1731L511 1800Q567 1909 677 1951Q714 1965 749 1965T809 1954T855 1927T893
1892T929 1857Q972 1819 1006 1819T1064 1831T1107 1861T1143 1900L1170 1938L1218 1863Q1194 1791 1127 1740Q1057 1689 980 1689Q891 1689 829 1761Q790 1805 764 1819T710 1835Z" />
<glyph unicode="&#xd6;" glyph-name="Odieresis" horiz-adv-x="1352" d="M598 -20Q492 -20 401 27T244 160Q106 345 106 661Q106 1034 306 1288Q438 1456 618 1518Q709 1550 820 1550T1023 1498T1178 1356Q1305 1169 1305 869Q1305 498 1108 243Q904 -20 598 -20ZM273
704Q273 80 628 76Q736 76 831 134Q1025 251 1104 539Q1139 671 1139 824Q1139 1275 950 1408Q883 1454 797 1454T644 1427T520 1349T416 1228Q273 1009 273 704ZM959 1775T959 1809T970 1865T999 1904Q1035 1938 1079 1938T1147 1912T1172 1846Q1172 1793 1133
1753Q1099 1717 1065 1717Q1010 1717 985 1746ZM594 1725Q541 1750 541 1812Q541 1865 579 1904Q614 1938 658 1938T727 1912T752 1846Q752 1793 713 1753Q679 1717 645 1717T594 1725Z" />
<glyph unicode="&#xd7;" glyph-name="multiply" horiz-adv-x="1370" d="M241 425L632 765L325 1103L430 1201L722 845L1099 1205L1181 1106L793 764L1102 426L996 327L704 684L324 326L241 425Z" />
<glyph unicode="&#xd8;" glyph-name="Oslash" horiz-adv-x="1353" d="M607 -18Q416 -18 287 113L125 -125L57 -83L234 178Q107 361 107 671Q107 904 197 1107T450 1430Q613 1552 795 1552T1097 1449L1243 1661L1312 1621L1155 1389Q1306 1201 1306 871Q1306 500
1108 245Q979 77 798 14Q706 -18 607 -18ZM1019 1344Q932 1456 785 1456Q641 1456 520 1351Q342 1196 289 890Q274 801 274 748T275 634Q278 448 331 307L1019 1344ZM373 219Q462 80 629 78Q737 78 832 136Q1026 253 1104 541Q1140 673 1140 826Q1140 1106 1065
1266L373 219Z" />
<glyph unicode="&#xd9;" glyph-name="Ugrave" horiz-adv-x="1396" d="M438 11Q178 108 178 452Q178 518 186 593L311 1431L172 1450L182 1530H637L628 1450L474 1429L351 607Q341 513 341 472T341 384T362 273T420 162Q500 69 651 69Q839 69 946 206T1088 627L1207
1429L1072 1449L1081 1530H1485L1476 1449L1347 1431L1227 627Q1161 118 858 14Q757 -20 639 -20T438 11ZM874 1614Q597 1775 543 1890L649 2000L920 1651L874 1614Z" />
<glyph unicode="&#xda;" glyph-name="Uacute" horiz-adv-x="1396" d="M438 11Q178 108 178 452Q178 518 186 593L311 1431L172 1450L182 1530H637L628 1450L474 1429L351 607Q341 513 341 472T341 384T362 273T420 162Q500 69 651 69Q839 69 946 206T1088 627L1207
1429L1072 1449L1081 1530H1485L1476 1449L1347 1431L1227 627Q1161 118 858 14Q757 -20 639 -20T438 11ZM777 1651L1059 2000L1158 1890Q1107 1790 907 1666L821 1614L777 1651Z" />
<glyph unicode="&#xdb;" glyph-name="Ucircumflex" horiz-adv-x="1396" d="M438 11Q178 108 178 452Q178 518 186 593L311 1431L172 1450L182 1530H637L628 1450L474 1429L351 607Q341 513 341 472T341 384T362 273T420 162Q500 69 651 69Q839 69 946 206T1088
627L1207 1429L1072 1449L1081 1530H1485L1476 1449L1347 1431L1227 627Q1161 118 858 14Q757 -20 639 -20T438 11ZM497 1666L818 2000H960L1179 1665L1124 1617L882 1873L547 1619L497 1666Z" />
<glyph unicode="&#xdc;" glyph-name="Udieresis" horiz-adv-x="1396" d="M438 11Q178 108 178 452Q178 518 186 593L311 1431L172 1450L182 1530H637L628 1450L474 1429L351 607Q341 513 341 472T341 384T362 273T420 162Q500 69 651 69Q839 69 946 206T1088 627L1207
1429L1072 1449L1081 1530H1485L1476 1449L1347 1431L1227 627Q1161 118 858 14Q757 -20 639 -20T438 11ZM956 1775T956 1809T967 1865T996 1904Q1032 1938 1076 1938T1144 1912T1169 1846Q1169 1793 1130 1753Q1096 1717 1062 1717Q1007 1717 982 1746ZM591 1725Q538
1750 538 1812Q538 1865 576 1904Q611 1938 655 1938T724 1912T749 1846Q749 1793 710 1753Q676 1717 642 1717T591 1725Z" />
<glyph unicode="&#xdd;" glyph-name="Yacute" horiz-adv-x="1167" d="M245 70L458 94L525 586L186 1430L70 1449L78 1530H546L536 1449L361 1430L581 822L623 685L701 822L1076 1430L929 1449L938 1530H1350L1338 1449L1225 1431L678 586L611 94L834 70L827 0H239L245
70ZM680 1651L962 2000L1061 1890Q1010 1790 810 1666L724 1614L680 1651Z" />
<glyph unicode="&#xde;" glyph-name="Thorn" horiz-adv-x="1188" d="M588 314Q462 314 385 319L355 94L511 70L504 0H38L45 69L194 94L374 1430L239 1449L249 1530H694L686 1449L535 1430L504 1198Q615 1213 724 1213Q1183 1213 1183 829Q1183 597 1010 453Q842
314 588 314ZM398 415Q486 405 591 405T776 437T912 524Q1021 635 1021 805Q1021 967 946 1040Q866 1117 672 1117Q623 1117 590 1114L533 1108Q510 1105 491 1102L398 415Z" />
<glyph unicode="&#xdf;" glyph-name="germandbls" d="M202 927Q253 1333 436 1480Q539 1563 662 1578Q720 1585 780 1585T898 1567T996 1513Q1085 1436 1085 1297Q1085 1137 950 1024L885 967Q815 904 815 858T848 759T941 626L980 562Q1057 437 1057 318Q1057
179 931 80Q808 -17 648 -17Q522 -17 430 20L451 171Q498 124 606 98Q641 89 678 89T754 99T823 132Q890 185 890 295Q890 399 806 543L762 604Q671 733 671 811Q671 871 691 902T728 953L765 993Q924 1139 924 1293Q924 1427 816 1472Q779 1488 721 1488T604 1458T496
1358Q391 1207 350 879L237 0H82L202 927Z" />
<glyph unicode="&#xe0;" glyph-name="agrave" horiz-adv-x="1138" d="M824 -20Q707 -20 707 98Q707 107 708 117L718 190Q622 50 482 -2Q431 -20 363 -20T237 10T141 96Q66 205 66 399Q66 562 142 734Q273 1029 518 1128Q605 1163 698 1163T899 1127L900 1128L1018
1162L868 173Q857 105 890 89Q899 85 912 85Q930 85 996 144L1023 100Q1010 72 971 41Q892 -20 824 -20ZM230 421Q230 94 407 94Q508 94 608 180Q685 246 739 336L842 1019Q783 1064 696 1064T546 1035T434 958T346 845T282 708Q230 566 230 421ZM654 1294Q388
1501 334 1596L455 1729L755 1304L711 1255Q687 1270 654 1294Z" />
<glyph unicode="&#xe1;" glyph-name="aacute" horiz-adv-x="1138" d="M824 -20Q707 -20 707 98Q707 107 708 117L718 190Q622 50 482 -2Q431 -20 363 -20T237 10T141 96Q66 205 66 399Q66 562 142 734Q273 1029 518 1128Q605 1163 698 1163T899 1127L900 1128L1018
1162L868 173Q857 105 890 89Q899 85 912 85Q930 85 996 144L1023 100Q1010 72 971 41Q892 -20 824 -20ZM230 421Q230 94 407 94Q508 94 608 180Q685 246 739 336L842 1019Q783 1064 696 1064T546 1035T434 958T346 845T282 708Q230 566 230 421ZM611 1304L933
1729L1046 1596Q1015 1543 881 1426L801 1359Q712 1288 654 1255L611 1304Z" />
<glyph unicode="&#xe2;" glyph-name="acircumflex" horiz-adv-x="1138" d="M824 -20Q707 -20 707 98Q707 107 708 117L718 190Q622 50 482 -2Q431 -20 363 -20T237 10T141 96Q66 205 66 399Q66 562 142 734Q273 1029 518 1128Q605 1163 698 1163T899 1127L900
1128L1018 1162L868 173Q857 105 890 89Q899 85 912 85Q930 85 996 144L1023 100Q1010 72 971 41Q892 -20 824 -20ZM230 421Q230 94 407 94Q508 94 608 180Q685 246 739 336L842 1019Q783 1064 696 1064T546 1035T434 958T346 845T282 708Q230 566 230 421ZM353
1275L694 1650H836L1038 1273L977 1226L745 1523L399 1228L353 1275Z" />
<glyph unicode="&#xe3;" glyph-name="atilde" horiz-adv-x="1138" d="M824 -20Q707 -20 707 98Q707 107 708 117L718 190Q622 50 482 -2Q431 -20 363 -20T237 10T141 96Q66 205 66 399Q66 562 142 734Q273 1029 518 1128Q605 1163 698 1163T899 1127L900 1128L1018
1162L868 173Q857 105 890 89Q899 85 912 85Q930 85 996 144L1023 100Q1010 72 971 41Q892 -20 824 -20ZM230 421Q230 94 407 94Q508 94 608 180Q685 246 739 336L842 1019Q783 1064 696 1064T546 1035T434 958T346 845T282 708Q230 566 230 421ZM569 1520Q499
1520 408 1416L370 1485Q426 1594 536 1636Q572 1650 607 1650T667 1639T713 1612T752 1577T788 1542Q831 1504 865 1504T923 1516T966 1547T1002 1586L1029 1623L1076 1549Q1037 1433 916 1388Q879 1374 840 1374T773 1384T725 1411T688 1446T654 1482Q614 1520
569 1520Z" />
<glyph unicode="&#xe4;" glyph-name="adieresis" horiz-adv-x="1138" d="M824 -20Q707 -20 707 98Q707 107 708 117L718 190Q622 50 482 -2Q431 -20 363 -20T237 10T141 96Q66 205 66 399Q66 562 142 734Q273 1029 518 1128Q605 1163 698 1163T899 1127L900 1128L1018
1162L868 173Q857 105 890 89Q899 85 912 85Q930 85 996 144L1023 100Q1010 72 971 41Q892 -20 824 -20ZM230 421Q230 94 407 94Q508 94 608 180Q685 246 739 336L842 1019Q783 1064 696 1064T546 1035T434 958T346 845T282 708Q230 566 230 421ZM835 1467T837
1500T850 1555T876 1593Q910 1627 956 1627T1027 1601T1052 1536Q1052 1481 1013 1442Q977 1406 943 1406Q889 1406 862 1436ZM468 1406T443 1434T417 1502Q417 1555 455 1593Q489 1627 534 1627T605 1601T630 1536Q630 1481 591 1442Q555 1406 512 1406Z" />
<glyph unicode="&#xe5;" glyph-name="aring" horiz-adv-x="1138" d="M824 -20Q707 -20 707 98Q707 107 708 117L718 190Q622 50 482 -2Q431 -20 363 -20T237 10T141 96Q66 205 66 399Q66 562 142 734Q273 1029 518 1128Q605 1163 698 1163T899 1127L900 1128L1018
1162L868 173Q857 105 890 89Q899 85 912 85Q930 85 996 144L1023 100Q1010 72 971 41Q892 -20 824 -20ZM230 421Q230 94 407 94Q508 94 608 180Q685 246 739 336L842 1019Q783 1064 696 1064T546 1035T434 958T346 845T282 708Q230 566 230 421ZM721 1256Q655
1256 601 1274Q455 1325 455 1483Q455 1637 577 1716Q671 1778 801 1778T997 1718T1062 1561Q1062 1407 945 1322Q855 1256 721 1256ZM629 1352T662 1337T738 1321T818 1330T885 1365Q957 1423 957 1542Q957 1658 859 1699Q826 1713 784 1713Q640 1713 585 1608Q561
1562 561 1516T571 1437T605 1379Z" />
<glyph unicode="&#xe6;" glyph-name="ae" horiz-adv-x="1704" d="M1156 92Q1359 92 1529 254L1567 186Q1514 114 1432 68Q1274 -20 1137 -20Q837 -20 779 273Q681 80 504 8Q437 -20 356 -20Q73 -20 73 396Q73 558 148 732Q275 1025 524 1126Q611 1162 713 1162T929
1119L939 1128L1037 1162L999 1013Q1154 1162 1343 1162Q1479 1162 1554 1089Q1621 1022 1621 927T1584 769T1486 657T1351 573T1198 514Q1050 469 933 467Q931 436 931 405Q931 92 1156 92ZM1457 899Q1457 1069 1306 1069Q1155 1069 1048 892Q954 740 937 557Q1119
564 1276 651Q1457 751 1457 899ZM233 406Q233 94 392 94Q515 94 628 207Q713 292 766 409V437Q768 558 802 672L861 1011Q799 1064 707 1064T552 1034T438 954T349 837T285 697Q233 551 233 406Z" />
<glyph unicode="&#xe7;" glyph-name="ccedilla" horiz-adv-x="897" d="M165 -331Q197 -348 260 -348T370 -299Q429 -237 429 -86Q429 -48 423 -20H421Q256 -20 163 100Q71 220 71 430Q71 701 218 920Q319 1070 474 1132Q552 1163 612 1163T702 1160T762 1150Q823
1137 866 1115L825 968Q733 1045 610 1045Q448 1045 344 878Q238 710 238 453Q238 272 298 182T465 92Q575 92 686 167Q720 190 756 217L788 151Q676 24 517 -10Q535 -60 535 -111T530 -219T504 -327T450 -410Q391 -464 275 -464Q174 -464 137 -436L165 -331Z"
/>
<glyph unicode="&#xe8;" glyph-name="egrave" horiz-adv-x="1025" d="M492 92Q671 92 833 254L871 186Q820 114 746 68Q604 -20 485 -20T290 20Q83 128 83 422Q83 616 164 794Q281 1054 502 1136Q576 1163 652 1163T782 1144T870 1091Q940 1023 940 929T903 772T805
659T670 574T518 515Q366 469 250 467Q248 444 248 424T249 373T260 302T288 222T334 155Q395 92 492 92ZM254 557Q437 564 596 651Q707 711 752 800Q776 846 776 915T735 1026T630 1069T519 1046T432 984T363 893T310 784Q265 672 254 557ZM577 1294Q311 1501
257 1596L378 1729L678 1304L634 1255Q610 1270 577 1294Z" />
<glyph unicode="&#xe9;" glyph-name="eacute" horiz-adv-x="1025" d="M492 92Q671 92 833 254L871 186Q820 114 746 68Q604 -20 485 -20T290 20Q83 128 83 422Q83 616 164 794Q281 1054 502 1136Q576 1163 652 1163T782 1144T870 1091Q940 1023 940 929T903 772T805
659T670 574T518 515Q366 469 250 467Q248 444 248 424T249 373T260 302T288 222T334 155Q395 92 492 92ZM254 557Q437 564 596 651Q707 711 752 800Q776 846 776 915T735 1026T630 1069T519 1046T432 984T363 893T310 784Q265 672 254 557ZM534 1304L856 1729L969
1596Q938 1543 804 1426L724 1359Q635 1288 577 1255L534 1304Z" />
<glyph unicode="&#xea;" glyph-name="ecircumflex" horiz-adv-x="1025" d="M492 92Q671 92 833 254L871 186Q820 114 746 68Q604 -20 485 -20T290 20Q83 128 83 422Q83 616 164 794Q281 1054 502 1136Q576 1163 652 1163T782 1144T870 1091Q940 1023 940 929T903
772T805 659T670 574T518 515Q366 469 250 467Q248 444 248 424T249 373T260 302T288 222T334 155Q395 92 492 92ZM254 557Q437 564 596 651Q707 711 752 800Q776 846 776 915T735 1026T630 1069T519 1046T432 984T363 893T310 784Q265 672 254 557ZM276 1275L617
1650H759L961 1273L900 1226L668 1523L322 1228L276 1275Z" />
<glyph unicode="&#xeb;" glyph-name="edieresis" horiz-adv-x="1025" d="M492 92Q671 92 833 254L871 186Q820 114 746 68Q604 -20 485 -20T290 20Q83 128 83 422Q83 616 164 794Q281 1054 502 1136Q576 1163 652 1163T782 1144T870 1091Q940 1023 940 929T903
772T805 659T670 574T518 515Q366 469 250 467Q248 444 248 424T249 373T260 302T288 222T334 155Q395 92 492 92ZM254 557Q437 564 596 651Q707 711 752 800Q776 846 776 915T735 1026T630 1069T519 1046T432 984T363 893T310 784Q265 672 254 557ZM758 1467T760
1500T773 1555T799 1593Q833 1627 879 1627T950 1601T975 1536Q975 1481 936 1442Q900 1406 866 1406Q812 1406 785 1436ZM391 1406T366 1434T340 1502Q340 1555 378 1593Q412 1627 457 1627T528 1601T553 1536Q553 1481 514 1442Q478 1406 435 1406Z" />
<glyph unicode="&#xec;" glyph-name="igrave" horiz-adv-x="625" d="M265 -20Q145 -20 156 99Q160 156 177 279L285 1016L148 1056L162 1121L420 1163L461 1142L320 158Q315 120 324 103T348 85Q387 85 456 156L483 112Q435 37 344 -4Q307 -20 265 -20ZM601 1294Q335
1501 281 1596L402 1729L702 1304L658 1255Q634 1270 601 1294Z" />
<glyph unicode="&#xed;" glyph-name="iacute" horiz-adv-x="625" d="M265 -20Q145 -20 156 99Q160 156 177 279L285 1016L148 1056L162 1121L420 1163L461 1142L320 158Q315 120 324 103T348 85Q387 85 456 156L483 112Q435 37 344 -4Q307 -20 265 -20ZM301 1304L623
1729L736 1596Q705 1543 571 1426L491 1359Q402 1288 344 1255L301 1304Z" />
<glyph unicode="&#xee;" glyph-name="icircumflex" horiz-adv-x="625" d="M265 -20Q145 -20 156 99Q160 156 177 279L285 1016L148 1056L162 1121L420 1163L461 1142L320 158Q315 120 324 103T348 85Q387 85 456 156L483 112Q435 37 344 -4Q307 -20 265 -20ZM300
1275L641 1650H783L985 1273L924 1226L692 1523L346 1228L300 1275Z" />
<glyph unicode="&#xef;" glyph-name="idieresis" horiz-adv-x="625" d="M265 -20Q145 -20 156 99Q160 156 177 279L285 1016L148 1056L162 1121L420 1163L461 1142L320 158Q315 120 324 103T348 85Q387 85 456 156L483 112Q435 37 344 -4Q307 -20 265 -20ZM525
1467T527 1500T540 1555T566 1593Q600 1627 646 1627T717 1601T742 1536Q742 1481 703 1442Q667 1406 633 1406Q579 1406 552 1436ZM158 1406T133 1434T107 1502Q107 1555 145 1593Q179 1627 224 1627T295 1601T320 1536Q320 1481 281 1442Q245 1406 202 1406Z"
/>
<glyph unicode="&#xf0;" glyph-name="eth" horiz-adv-x="1134" d="M757 1524Q1053 1287 1053 816Q1053 472 902 233Q801 74 641 12Q561 -20 463 -20T293 19T175 120Q86 241 86 411T132 709T254 926T428 1062T631 1110Q764 1110 855 1034Q885 1009 903 976Q868
1136 834 1211Q772 1345 677 1431L526 1257L440 1328L593 1498Q450 1604 345 1628L381 1725Q491 1697 670 1585Q793 1728 828 1771L911 1697L757 1524ZM301 742T278 633T254 434T267 281T310 170Q372 67 489 67Q627 67 736 220Q863 398 882 686Q884 716 884 742Q884
814 863 856T822 924T774 972Q714 1020 625 1020T465 967T348 828Z" />
<glyph unicode="&#xf1;" glyph-name="ntilde" horiz-adv-x="1253" d="M900 -21Q795 -21 795 81Q795 88 795 109T802 176T816 270L868 552Q906 756 906 833T899 944T875 1000Q846 1037 785 1037T671 1014T564 950Q449 865 368 745L269 0H114L247 1002L149 1049L163
1121L374 1163L414 1143L387 886Q534 1075 716 1140Q778 1163 834 1163T933 1148T1004 1098Q1066 1027 1066 868Q1066 779 1043 663T1013 507Q965 235 962 179Q957 85 984 85Q1021 85 1081 139L1107 95Q1064 31 974 -6Q939 -21 900 -21ZM561 1520Q491 1520 400
1416L362 1485Q418 1594 528 1636Q564 1650 599 1650T659 1639T705 1612T744 1577T780 1542Q823 1504 857 1504T915 1516T958 1547T994 1586L1021 1623L1068 1549Q1029 1433 908 1388Q871 1374 832 1374T765 1384T717 1411T680 1446T646 1482Q606 1520 561 1520Z"
/>
<glyph unicode="&#xf2;" glyph-name="ograve" horiz-adv-x="1123" d="M306 11Q87 106 87 458Q87 727 238 937Q339 1078 486 1134Q560 1163 649 1163T810 1132T930 1042Q1031 919 1031 685Q1031 416 880 206Q779 65 632 8Q557 -20 468 -20T306 11ZM252 455Q252
78 501 78Q676 78 778 288Q865 466 865 687Q865 1065 615 1065Q497 1065 408 964Q291 831 260 582Q252 516 252 455ZM603 1294Q337 1501 283 1596L404 1729L704 1304L660 1255Q636 1270 603 1294Z" />
<glyph unicode="&#xf3;" glyph-name="oacute" horiz-adv-x="1123" d="M306 11Q87 106 87 458Q87 727 238 937Q339 1078 486 1134Q560 1163 649 1163T810 1132T930 1042Q1031 919 1031 685Q1031 416 880 206Q779 65 632 8Q557 -20 468 -20T306 11ZM252 455Q252
78 501 78Q676 78 778 288Q865 466 865 687Q865 1065 615 1065Q497 1065 408 964Q291 831 260 582Q252 516 252 455ZM560 1304L882 1729L995 1596Q964 1543 830 1426L750 1359Q661 1288 603 1255L560 1304Z" />
<glyph unicode="&#xf4;" glyph-name="ocircumflex" horiz-adv-x="1123" d="M306 11Q87 106 87 458Q87 727 238 937Q339 1078 486 1134Q560 1163 649 1163T810 1132T930 1042Q1031 919 1031 685Q1031 416 880 206Q779 65 632 8Q557 -20 468 -20T306 11ZM252 455Q252
78 501 78Q676 78 778 288Q865 466 865 687Q865 1065 615 1065Q497 1065 408 964Q291 831 260 582Q252 516 252 455ZM302 1275L643 1650H785L987 1273L926 1226L694 1523L348 1228L302 1275Z" />
<glyph unicode="&#xf5;" glyph-name="otilde" horiz-adv-x="1123" d="M306 11Q87 106 87 458Q87 727 238 937Q339 1078 486 1134Q560 1163 649 1163T810 1132T930 1042Q1031 919 1031 685Q1031 416 880 206Q779 65 632 8Q557 -20 468 -20T306 11ZM252 455Q252
78 501 78Q676 78 778 288Q865 466 865 687Q865 1065 615 1065Q497 1065 408 964Q291 831 260 582Q252 516 252 455ZM518 1520Q448 1520 357 1416L319 1485Q375 1594 485 1636Q521 1650 556 1650T616 1639T662 1612T701 1577T737 1542Q780 1504 814 1504T872 1516T915
1547T951 1586L978 1623L1025 1549Q986 1433 865 1388Q828 1374 789 1374T722 1384T674 1411T637 1446T603 1482Q563 1520 518 1520Z" />
<glyph unicode="&#xf6;" glyph-name="odieresis" horiz-adv-x="1123" d="M306 11Q87 106 87 458Q87 727 238 937Q339 1078 486 1134Q560 1163 649 1163T810 1132T930 1042Q1031 919 1031 685Q1031 416 880 206Q779 65 632 8Q557 -20 468 -20T306 11ZM252 455Q252
78 501 78Q676 78 778 288Q865 466 865 687Q865 1065 615 1065Q497 1065 408 964Q291 831 260 582Q252 516 252 455ZM784 1467T786 1500T799 1555T825 1593Q859 1627 905 1627T976 1601T1001 1536Q1001 1481 962 1442Q926 1406 892 1406Q838 1406 811 1436ZM417
1406T392 1434T366 1502Q366 1555 404 1593Q438 1627 483 1627T554 1601T579 1536Q579 1481 540 1442Q504 1406 461 1406Z" />
<glyph unicode="&#xf7;" glyph-name="divide" horiz-adv-x="1370" d="M791 1274Q887 1274 887 1185Q887 1121 836 1079Q795 1046 761 1046T707 1053T674 1074Q644 1104 648 1141T667 1201T701 1240Q744 1274 791 1274ZM286 837H1155L1141 712H272L286 837ZM697
501Q793 501 793 412Q793 347 742 306Q702 273 667 273T613 280Q556 301 556 363Q556 425 608 467Q649 501 697 501Z" />
<glyph unicode="&#xf8;" glyph-name="oslash" horiz-adv-x="1122" d="M915 1060Q1031 938 1031 687Q1031 418 880 208Q779 67 632 10Q557 -18 473 -18Q329 -18 238 53L113 -127L41 -87L179 112Q87 234 87 460Q87 729 238 939Q339 1080 486 1136Q560 1165 663 1165T852
1112L982 1299L1054 1259L915 1060ZM771 1008Q712 1067 632 1067T501 1040T408 966T337 857Q252 681 252 457Q252 329 280 247L771 1008ZM323 164Q386 80 501 80Q676 80 778 290Q865 468 865 689Q865 841 821 935L323 164Z" />
<glyph unicode="&#xf9;" glyph-name="ugrave" horiz-adv-x="1204" d="M779 169Q612 -20 411 -20Q230 -20 182 122Q165 175 165 231T168 331T177 420T188 514L255 1002L158 1049L172 1120L382 1163L422 1142L353 599L342 514Q321 363 321 292T332 184T364 126Q399
90 458 90T562 106T648 150Q730 201 792 279L907 1155H1062L932 159Q923 87 956 87Q998 87 1067 158L1093 113Q1051 43 949 -2Q911 -18 862 -18T792 12T771 69T774 110T777 138T779 169ZM612 1294Q346 1501 292 1596L413 1729L713 1304L669 1255Q645 1270 612 1294Z"
/>
<glyph unicode="&#xfa;" glyph-name="uacute" horiz-adv-x="1204" d="M779 169Q612 -20 411 -20Q230 -20 182 122Q165 175 165 231T168 331T177 420T188 514L255 1002L158 1049L172 1120L382 1163L422 1142L353 599L342 514Q321 363 321 292T332 184T364 126Q399
90 458 90T562 106T648 150Q730 201 792 279L907 1155H1062L932 159Q923 87 956 87Q998 87 1067 158L1093 113Q1051 43 949 -2Q911 -18 862 -18T792 12T771 69T774 110T777 138T779 169ZM569 1304L891 1729L1004 1596Q973 1543 839 1426L759 1359Q670 1288 612
1255L569 1304Z" />
<glyph unicode="&#xfb;" glyph-name="ucircumflex" horiz-adv-x="1204" d="M779 169Q612 -20 411 -20Q230 -20 182 122Q165 175 165 231T168 331T177 420T188 514L255 1002L158 1049L172 1120L382 1163L422 1142L353 599L342 514Q321 363 321 292T332 184T364
126Q399 90 458 90T562 106T648 150Q730 201 792 279L907 1155H1062L932 159Q923 87 956 87Q998 87 1067 158L1093 113Q1051 43 949 -2Q911 -18 862 -18T792 12T771 69T774 110T777 138T779 169ZM311 1275L652 1650H794L996 1273L935 1226L703 1523L357 1228L311
1275Z" />
<glyph unicode="&#xfc;" glyph-name="udieresis" horiz-adv-x="1204" d="M779 169Q612 -20 411 -20Q230 -20 182 122Q165 175 165 231T168 331T177 420T188 514L255 1002L158 1049L172 1120L382 1163L422 1142L353 599L342 514Q321 363 321 292T332 184T364 126Q399
90 458 90T562 106T648 150Q730 201 792 279L907 1155H1062L932 159Q923 87 956 87Q998 87 1067 158L1093 113Q1051 43 949 -2Q911 -18 862 -18T792 12T771 69T774 110T777 138T779 169ZM793 1467T795 1500T808 1555T834 1593Q868 1627 914 1627T985 1601T1010
1536Q1010 1481 971 1442Q935 1406 901 1406Q847 1406 820 1436ZM426 1406T401 1434T375 1502Q375 1555 413 1593Q447 1627 492 1627T563 1601T588 1536Q588 1481 549 1442Q513 1406 470 1406Z" />
<glyph unicode="&#xfd;" glyph-name="yacute" horiz-adv-x="1051" d="M895 1162Q1005 1162 1005 982Q1005 800 858 502L746 290Q520 -160 379 -329Q300 -443 156 -488Q99 -505 54 -505T-15 -503T-62 -496Q-114 -486 -143 -476L-106 -349Q-98 -352 -85 -358T-50
-372Q2 -388 50 -388T142 -372T230 -319Q332 -234 402 -79H352L172 979Q161 1022 151 1035T118 1049T35 993L11 1042Q46 1105 138 1148Q171 1163 206 1163T262 1154T298 1126Q317 1101 331 1026L432 258L458 -23L614 276Q624 296 646 342L703 464Q828 726 849 924Q854
965 842 997L824 1046Q818 1061 818 1091T840 1141T895 1162ZM499 1304L821 1729L934 1596Q903 1543 769 1426L689 1359Q600 1288 542 1255L499 1304Z" />
<glyph unicode="&#xfe;" glyph-name="thorn" horiz-adv-x="1147" d="M612 14Q525 -20 435 -20T255 5L183 -520H30L99 -5L294 1516L199 1550L215 1618L424 1650L467 1627L381 968Q473 1098 610 1146Q661 1163 733 1163T869 1131T975 1040Q1058 925 1058 730Q1058
569 984 398Q858 111 612 14ZM272 130Q335 78 430 78T587 107T699 187T785 302T846 438Q894 580 894 727T842 961T692 1048Q590 1048 488 969Q406 905 362 826L272 130Z" />
<glyph unicode="&#xff;" glyph-name="ydieresis" horiz-adv-x="1051" d="M895 1162Q1005 1162 1005 982Q1005 800 858 502L746 290Q520 -160 379 -329Q300 -443 156 -488Q99 -505 54 -505T-15 -503T-62 -496Q-114 -486 -143 -476L-106 -349Q-98 -352 -85 -358T-50
-372Q2 -388 50 -388T142 -372T230 -319Q332 -234 402 -79H352L172 979Q161 1022 151 1035T118 1049T35 993L11 1042Q46 1105 138 1148Q171 1163 206 1163T262 1154T298 1126Q317 1101 331 1026L432 258L458 -23L614 276Q624 296 646 342L703 464Q828 726 849 924Q854
965 842 997L824 1046Q818 1061 818 1091T840 1141T895 1162ZM723 1467T725 1500T738 1555T764 1593Q798 1627 844 1627T915 1601T940 1536Q940 1481 901 1442Q865 1406 831 1406Q777 1406 750 1436ZM356 1406T331 1434T305 1502Q305 1555 343 1593Q377 1627 422
1627T493 1601T518 1536Q518 1481 479 1442Q443 1406 400 1406Z" />
<glyph unicode="&#x2013;" glyph-name="endash" horiz-adv-x="1548" d="M262 836H1364L1340 710H238L262 836Z" />
<glyph unicode="&#x2014;" glyph-name="emdash" horiz-adv-x="2043" d="M261 836H1858L1835 710H238L261 836Z" />
<glyph unicode="&#x2018;" glyph-name="quoteleft" horiz-adv-x="682" d="M395 937Q304 961 256 1048Q217 1119 217 1214T251 1390T339 1535Q439 1654 597 1721L631 1664L629 1647Q544 1616 472 1512Q392 1398 392 1281Q392 1167 462 1112Q485 1094 515 1088L511
1055L395 937Z" />
<glyph unicode="&#x2019;" glyph-name="quoteright" horiz-adv-x="682" d="M467 1720Q558 1696 606 1609Q645 1538 645 1443T611 1267T523 1122Q423 1003 265 936L231 993L233 1010Q318 1041 390 1145Q470 1259 470 1376Q470 1490 400 1545Q377 1563 347 1569L351
1602L467 1720Z" />
<glyph unicode="&#x201a;" glyph-name="quotesinglbase" horiz-adv-x="682" d="M283 281Q374 257 422 170Q461 99 461 4T427 -172T339 -317Q239 -436 81 -503L47 -446L49 -429Q134 -398 206 -294Q286 -180 286 -63Q286 51 216 106Q193 124 163 130L167 163L283 281Z" />
<glyph unicode="&#x201c;" glyph-name="quotedblleft" horiz-adv-x="1161" d="M874 937Q783 961 735 1048Q696 1119 696 1214T730 1390T818 1535Q918 1654 1076 1721L1110 1664L1108 1647Q1023 1616 951 1512Q871 1398 871 1281Q871 1167 941 1112Q964 1094 994
1088L990 1055L874 937ZM395 937Q304 961 256 1048Q217 1119 217 1214T251 1390T339 1535Q439 1654 597 1721L631 1664L629 1647Q544 1616 472 1512Q392 1398 392 1281Q392 1167 462 1112Q485 1094 515 1088L511 1055L395 937Z" />
<glyph unicode="&#x201d;" glyph-name="quotedblright" horiz-adv-x="1161" d="M946 1720Q1037 1696 1085 1609Q1124 1538 1124 1443T1090 1267T1002 1122Q902 1003 744 936L710 993L712 1010Q797 1041 869 1145Q949 1259 949 1376Q949 1490 879 1545Q856 1563
826 1569L830 1602L946 1720ZM467 1720Q558 1696 606 1609Q645 1538 645 1443T611 1267T523 1122Q423 1003 265 936L231 993L233 1010Q318 1041 390 1145Q470 1259 470 1376Q470 1490 400 1545Q377 1563 347 1569L351 1602L467 1720Z" />
<glyph unicode="&#x201e;" glyph-name="quotedblbase" horiz-adv-x="1161" d="M283 281Q374 257 422 170Q461 99 461 4T427 -172T339 -317Q239 -436 81 -503L47 -446L49 -429Q134 -398 206 -294Q286 -180 286 -63Q286 51 216 106Q193 124 163 130L167 163L283
281ZM762 281Q853 257 901 170Q940 99 940 4T906 -172T818 -317Q718 -436 560 -503L526 -446L528 -429Q613 -398 685 -294Q765 -180 765 -63Q765 51 695 106Q672 124 642 130L646 163L762 281Z" />
<glyph unicode="&#x2022;" glyph-name="bullet" horiz-adv-x="858" d="M530 587T493 568T421 548T360 559T314 590Q273 632 273 679T290 764T335 831Q398 898 477 898Q538 898 579 858Q619 820 619 772T603 686T558 618Z" />
<glyph unicode="&#x2039;" glyph-name="guilsinglleft" horiz-adv-x="1190" d="M262 674L956 1086L987 993L437 614L884 242L828 152L244 547L262 674Z" />
<glyph unicode="&#x203a;" glyph-name="guilsinglright" horiz-adv-x="1190" d="M859 564L165 152L134 245L684 624L237 996L293 1086L877 691L859 564Z" />
</font>
</defs>
</svg>
